<?xml version="1.0" encoding="UTF-8" standalone="no"?>
<svg
   width="201"
   height="180.26521"
   viewBox="0 0 329.81707 443.45332"
   version="1.1"
   id="svg416"
   sodipodi:docname="image-header.svg"
   inkscape:version="1.1 (c68e22c387, 2021-05-23)"
   xmlns:inkscape="http://www.inkscape.org/namespaces/inkscape"
   xmlns:sodipodi="http://sodipodi.sourceforge.net/DTD/sodipodi-0.dtd"
   xmlns="http://www.w3.org/2000/svg"
   xmlns:svg="http://www.w3.org/2000/svg">
  <sodipodi:namedview
     id="namedview418"
     pagecolor="#ffffff"
     bordercolor="#666666"
     borderopacity="1.0"
     inkscape:pageshadow="2"
     inkscape:pageopacity="0.0"
     inkscape:pagecheckerboard="0"
     showgrid="false"
     inkscape:snap-global="true"
     inkscape:zoom="1"
     inkscape:cx="114"
     inkscape:cy="211.5"
     inkscape:window-width="1920"
     inkscape:window-height="1017"
     inkscape:window-x="-8"
     inkscape:window-y="-8"
     inkscape:window-maximized="1"
     inkscape:current-layer="svg416" />
  <defs
     id="defs4">
    <style
       id="style2">.a{fill:#72b5e8;}.b{fill:#a8cff0;}.c{fill:#d1ebff;}.d,.g{fill:#fff;}.e{fill:#eb4680;}.f{fill:#d62d69;}.g{opacity:0.7;}.h{fill:#3f92d1;}.i{fill:#4f9fdb;}.j{fill:#03336e;}.k{fill:#001a46;}.l{fill:#2672ab;}.m{fill:#084c94;}.n{fill:#0fbab8;}.o{fill:#0ba19f;}.p{fill:#fc0;}.q{fill:#ffd70f;}.r{fill:#ffde17;}.s{fill:#3ecfcd;}.t{fill:#f76195;}.u{fill:#e9f0f6;}</style>
  </defs>
  <g
     id="g158589"
     transform="matrix(0.89684149,0,0,0.89684149,-82.321965,5.2253345e-5)"
     style="stroke-width:1.11502">
    <path
       class="a"
       d="M 120.585,88.744 138.06,74.298 151.167,81.832 133.1365,97.1805 Z"
       id="path82"
       style="fill:#ab7126;fill-opacity:1;stroke-width:1.11502"
       sodipodi:nodetypes="ccccc" />
    <path
       class="a"
       d="M 84.449,286.589 C 96.86,279.412 106.937,262.043 106.937,247.789 106.937,242.507 105.544,238.408 103.162,235.702 109.983,236.188 114.503,241.891 114.503,251.531 114.503,265.789 104.442,283.157 92.015,290.331 84.206,294.831 77.433,294.219 73.315,289.618 A 19.6,19.6 0 0 0 84.446,286.588 Z"
       id="path6"
       style="fill:#ab7126;fill-opacity:1;stroke-width:1.11502" />
    <path
       class="b"
       d="M 62.572,281.894 A 42.134,42.134 0 0 1 62.961,276.434 L 53.855,275.284 A 82.362,82.362 0 0 1 57.987,261.512 L 68.344,258.385 A 73.941,73.941 0 0 1 74.825,247.254 L 72.346,236.804 A 82.634,82.634 0 0 1 82.278,226.338 L 87.852,233.564 A 42.4,42.4 0 0 1 92.405,230.486 34.276,34.276 0 0 1 96.974,228.299 L 102.544,214.64 A 27.542,27.542 0 0 1 112.476,213.64 L 109.981,226.958 A 14.29,14.29 0 0 1 116.462,230.636 L 126.831,221.806 A 27.137,27.137 0 0 1 130.946,230.814 L 121.857,242.463 A 35.117,35.117 0 0 1 122.246,247.486 44.645,44.645 0 0 1 121.857,252.93 L 130.946,254.08 A 81.377,81.377 0 0 1 126.831,267.852 L 116.462,270.995 A 71.111,71.111 0 0 1 109.981,282.11 L 112.476,292.576 A 83.492,83.492 0 0 1 102.544,303.026 L 96.971,295.816 A 48.006,48.006 0 0 1 92.402,298.894 36.254,36.254 0 0 1 87.849,301.081 L 82.275,314.739 A 27.544,27.544 0 0 1 72.343,315.727 L 74.789,302.49 A 14.306,14.306 0 0 1 68.308,298.812 L 57.955,307.642 A 26.844,26.844 0 0 1 53.824,298.634 L 62.929,286.985 A 32.534,32.534 0 0 1 62.572,281.894 Z M 92.092,290.335 C 104.519,283.158 114.58,265.789 114.58,251.535 114.58,237.281 104.518,231.542 92.092,238.703 79.666,245.864 69.592,263.249 69.592,277.588 69.592,291.927 79.665,297.512 92.092,290.335 Z"
       id="path8"
       style="fill:#f0d1a8;fill-opacity:1;stroke-width:1.11502" />
    <path
       class="a"
       d="M 88.219,223.216 93.789,209.574 102.506,214.564 96.933,228.222 Z"
       id="path10"
       style="fill:#ab7126;fill-opacity:1;stroke-width:1.11502" />
    <path
       class="c"
       d="M 96.936,228.25 A 34.271,34.271 0 0 0 92.367,230.437 42.412,42.412 0 0 0 87.815,233.515 L 82.242,226.289 V 226.289 L 83.651,225.43 A 34.262,34.262 0 0 1 88.22,223.243 Z"
       id="path12"
       style="fill:#e9bc80;fill-opacity:1;stroke-width:1.11502" />
    <path
       class="c"
       d="M 93.711,209.566 A 27.542,27.542 0 0 1 103.643,208.566 L 112.36,213.572 A 27.544,27.544 0 0 0 102.428,214.572 Z"
       id="path14"
       style="fill:#e9bc80;fill-opacity:1;stroke-width:1.11502" />
    <path
       class="c"
       d="M 63.593,231.75 A 82.631,82.631 0 0 1 73.525,221.284 L 82.241,226.29 A 82.625,82.625 0 0 0 72.309,236.756 Z"
       id="path16"
       style="fill:#e9bc80;fill-opacity:1;stroke-width:1.11502" />
    <path
       class="a"
       d="M 72.309,236.769 74.809,247.219 66.092,242.213 63.613,231.763 Z"
       id="path18"
       style="fill:#ab7126;fill-opacity:1;stroke-width:1.11502" />
    <path
       class="a"
       d="M 74.788,247.232 A 73.932,73.932 0 0 0 68.307,258.363 L 59.59,253.357 A 73.937,73.937 0 0 1 66.071,242.226 Z"
       id="path20"
       style="fill:#ab7126;fill-opacity:1;stroke-width:1.11502" />
    <path
       class="c"
       d="M 68.356,258.371 57.987,261.498 49.27,256.492 59.639,253.365 Z"
       id="path22"
       style="fill:#e9bc80;fill-opacity:1;stroke-width:1.11502" />
    <path
       class="a"
       d="M 57.987,261.508 A 82.362,82.362 0 0 0 53.856,275.28 L 45.139,270.274 A 82.349,82.349 0 0 1 49.27,256.502 Z"
       id="path24"
       style="fill:#ab7126;fill-opacity:1;stroke-width:1.11502" />
    <path
       class="a"
       d="M 109.791,226.9 110.52,223.028 117.891,216.741 126.608,221.747 116.239,230.577 A 14.29,14.29 0 0 0 109.791,226.899 Z"
       id="path26"
       style="stroke-width:1.11502" />
    <path
       class="a"
       d="M 53.856,298.586 A 26.849,26.849 0 0 0 57.987,307.594 L 49.27,302.588 A 26.853,26.853 0 0 1 45.139,293.58 Z"
       id="path28"
       style="fill:#ab7126;fill-opacity:1;stroke-width:1.11502" />
    <path
       class="a"
       d="M 54.244,281.908 A 34.707,34.707 0 0 1 53.855,276.902 C 53.855,276.367 53.855,275.833 53.855,275.282 L 62.896,276.416 A 42.1,42.1 0 0 0 62.507,281.876 32.5,32.5 0 0 0 62.896,286.882 Z"
       id="path30"
       style="fill:#ab7126;fill-opacity:1;stroke-width:1.11502" />
    <path
       class="c"
       d="M 62.961,286.925 53.872,298.574 45.155,293.568 54.244,281.919 Z"
       id="path32"
       style="fill:#e9bc80;fill-opacity:1;stroke-width:1.11502" />
    <path
       class="a"
       d="M 68.339,298.773 A 14.307,14.307 0 0 0 74.82,302.451 L 72.341,315.769 63.624,310.763 65.39,301.317 Z"
       id="path34"
       style="fill:#ab7126;fill-opacity:1;stroke-width:1.11502" />
    <path
       class="c"
       d="M 121.947,249 130.712,254.136 121.623,252.986 C 121.801,251.56 121.898,250.231 121.947,249 Z"
       id="path36"
       style="stroke-width:1.11502" />
    <path
       class="a"
       d="M 96.936,295.846 102.509,303.056 93.728,298.066 C 94.813,297.366 95.883,296.64 96.936,295.846 Z"
       id="path38"
       style="fill:#ab7126;fill-opacity:1;stroke-width:1.11502" />
    <path
       class="a"
       d="M 87.669,179.43 C 106.369,168.64 121.515,142.506 121.515,121.103 121.515,113.148 119.25275,106.77003 115.67175,102.68703 126.2715,103.43203 133.018,112.24 133.018,126.741 133.018,148.176 117.869,174.31 99.172,185.068 87.442,191.857 77.121,190.917 71.062,183.999 76.92938,184.16566 82.71262,182.57455 87.669,179.43 Z"
       id="path62"
       sodipodi:nodetypes="cscsccc"
       style="fill:#ab7126;fill-opacity:1;stroke-width:1.11502" />
    <path
       class="b"
       d="M 54.778,172.207 C 54.79762,169.46404 54.99335,166.91914 55.362,164.201 L 41.752,162.484 C 43.20931,155.41344 45.20564,148.43875 47.877,141.732 L 63.463,136.99 C 66.20402,131.13556 69.44101,125.49978 73.168,120.218 L 69.42,104.483 C 73.93183,98.814106 78.93015,93.550104 84.358,88.751 L 92.757,99.527 C 97.1245,96.307957 101.66528,93.42563 106.348,91.586 L 114.712,71.042 C 119.55861,69.637273 124.62047,69.126614 129.65,69.535 L 125.874,89.577 C 129.54601,90.535082 132.87858,92.446627 135.574,95.118 L 151.167,81.832 C 154.05304,85.924317 156.39611,90.515232 157.612,95.373 L 143.921,112.904 C 144.30488,115.39706 144.49977,117.91556 144.504,120.438 144.4845,123.18096 144.28977,125.91987 143.921,128.638 L 157.547,130.438 C 156.08923,137.50856 154.01257,144.43724 151.341,151.144 L 135.755,155.859 C 133.01403,161.71347 129.76104,167.31425 126.034,172.596 L 129.777,188.328 C 125.2786,193.96789 120.30253,199.20962 114.904,203.995 L 106.511,193.14 C 104.323,194.82256 102.03442,196.3701 99.658,197.774 97.45468,199.01763 95.16438,200.10045 92.805,201.014 L 84.412,221.558 C 79.56525,222.96202 74.47052,223.75967 69.441,223.352 L 73.184,203.31 C 69.51201,202.35187 66.15845,200.44034 63.463,197.769 L 47.877,211.043 C 44.99087,206.9494 42.90312,202.3381 41.688,197.479 L 55.362,179.948 C 54.96971,177.47192 54.7968,174.7149 54.779,172.208 Z M 99.171,184.907 C 117.871,174.117 133.017,147.983 133.017,126.58 133.017,105.177 117.868,96.493 99.171,107.28 80.474,118.067 65.325,144.204 65.325,165.607 65.325,187.01 80.49,195.707 99.171,184.907 Z"
       id="path64"
       sodipodi:nodetypes="ccccccccccccccccccccccccccccccccccccccsssc"
       style="fill:#f0d1a8;fill-opacity:1;stroke-width:1.11502" />
    <path
       class="a"
       d="M 93.224,84.052 101.617,63.508 114.724,71.042 106.348,91.586 Z"
       id="path66"
       style="fill:#ab7126;fill-opacity:1;stroke-width:1.11502" />
    <path
       class="c"
       d="M 101.604,63.508 A 41.883,41.883 0 0 1 116.526,62.001 L 129.65,69.535 A 41.574,41.574 0 0 0 114.712,71.042 Z"
       id="path70"
       style="fill:#e9bc80;fill-opacity:1;stroke-width:1.11502" />
    <path
       class="c"
       d="M 56.313,96.949 C 60.824515,91.279834 65.822865,86.015807 71.251,81.217 L 84.358,88.751 C 86.157587,87.539327 90.801034,84.97434 93.250593,84.016638 94.725897,84.936823 102.54411,89.462818 106.348,91.586 102.79188,93.118182 92.757,99.527 92.757,99.527 L 84.358,88.751 C 84.358,88.751 70.095622,103.6341 69.42,104.483 Z"
       id="path72"
       style="fill:#e9bc80;fill-opacity:1;stroke-width:1.11502"
       sodipodi:nodetypes="ccccccccc" />
    <path
       class="a"
       d="M 73.168,120.218 C 69.44098,125.49976 66.20199,131.06255 63.461,136.917 L 50.356,129.472 C 53.0969,123.61749 56.33089,117.9817 60.058,112.7 L 56.318,96.968 69.442,104.502 Z"
       id="path76"
       sodipodi:nodetypes="ccccccc"
       style="fill:#ab7126;fill-opacity:1;stroke-width:1.11502" />
    <path
       class="c"
       d="M 63.463,136.99 47.877,141.705 34.77,134.187 50.356,129.472 Z"
       id="path78"
       style="fill:#e9bc80;fill-opacity:1;stroke-width:1.11502" />
    <path
       class="a"
       d="M 47.877,141.732 C 45.20531,148.43872 43.20965,155.41341 41.752,162.484 L 28.564,154.904 C 30.02129,147.83343 32.09762,140.90474 34.769,134.198 Z"
       id="path80"
       sodipodi:nodetypes="ccccc"
       style="fill:#ab7126;fill-opacity:1;stroke-width:1.11502" />
    <path
       class="a"
       d="M 41.672,197.498 A 40.6,40.6 0 0 0 47.877,211.043 L 34.77,203.525 A 40.7,40.7 0 0 1 28.565,189.964 Z"
       id="path84"
       style="fill:#ab7126;fill-opacity:1;stroke-width:1.11502" />
    <path
       class="a"
       d="M 42.238,172.4 A 52.348,52.348 0 0 1 41.671,164.866 23.259,23.259 0 0 1 41.752,162.484 L 55.362,164.201 A 64.488,64.488 0 0 0 54.779,172.401 50.056,50.056 0 0 0 55.362,179.935 Z"
       id="path86"
       style="fill:#ab7126;fill-opacity:1;stroke-width:1.11502" />
    <path
       class="c"
       d="M 55.362,179.948 41.688,197.479 28.564,189.945 42.255,172.415 Z"
       id="path88"
       style="fill:#e9bc80;fill-opacity:1;stroke-width:1.11502" />
    <path
       class="a"
       d="M 63.463,197.769 A 21.531,21.531 0 0 0 73.184,203.31 L 69.441,223.352 56.334,215.818 58.991,201.609 Z"
       id="path90"
       style="fill:#ab7126;fill-opacity:1;stroke-width:1.11502" />
    <path
       class="c"
       d="M 144.44025,122.772 157.547,130.438 143.921,128.638 C 144.132,126.549 144.34325,124.765 144.44025,122.772 Z"
       id="path92"
       sodipodi:nodetypes="cccc"
       style="fill:#e9bc80;fill-opacity:1;stroke-width:1.11502" />
    <path
       class="a"
       d="M 106.511,193.14 114.763,204.00003 101.50831,196.6405 C 103.07531,195.6035 104.939,194.34 106.511,193.14 Z"
       id="path94"
       sodipodi:nodetypes="cccc"
       style="fill:#ab7126;fill-opacity:1;stroke-width:1.11502" />
    <path
       class="e"
       d="M 82.662,62.001 C 82.562,59.83 81.042,58.89 79.341,59.895 A 6.756,6.756 0 0 0 76.392,65.63 C 76.492,67.801 78.012,68.741 79.632,67.736 A 6.772,6.772 0 0 0 82.662,62.001 Z"
       id="path118"
       style="fill:#b5ff76;fill-opacity:1;stroke-width:1.11502" />
    <path
       class="e"
       d="M 92.367,321.667 C 92.367,320.225 91.298,319.593 90.147,320.257 A 4.52,4.52 0 0 0 88.187,324.064 C 88.187,325.506 89.24,326.138 90.407,325.474 A 4.52,4.52 0 0 0 92.367,321.667 Z"
       id="path120"
       style="fill:#b5ff76;fill-opacity:1;stroke-width:1.11502" />
    <path
       class="e"
       d="M 29.034,216.697 A 0.827,0.827 0 0 0 29.666,216.389 0.81,0.81 0 0 0 29.666,215.482 L 25.778,208.823 A 0.81,0.81 0 1 0 24.385,209.633 L 27.22,214.494 21.485,212.744 A 0.778,0.778 0 0 0 20.485,213.279 0.794,0.794 0 0 0 21.02,214.279 L 28.732,216.661 Z"
       id="path122"
       style="fill:#b5ff76;fill-opacity:1;stroke-width:1.11502" />
    <path
       class="f"
       d="M 96.272,246.115 A 18.616,18.616 0 0 0 89.046,254.832 17.83,17.83 0 0 1 86.664,254.022 6.48,6.48 0 0 0 81.091,254.881 18.875,18.875 0 0 0 72.536,269.657 C 72.536,279.589 89.516,283.024 89.516,283.024 89.516,283.024 105.716,261.424 105.716,251.495 105.716,248.789 106.866,247.963 105.327,247.072 105.197,246.991 102.086,245.355 101.973,245.306 A 6.3,6.3 0 0 0 96.273,246.116 Z"
       id="path124"
       style="fill:#e31960;fill-opacity:1;stroke-width:1.11502" />
    <path
       class="e"
       d="M 99.139,247.656 A 18.924,18.924 0 0 0 91.539,257.377 C 90.113,255.06 87.262,254.577 83.957,256.47 A 18.891,18.891 0 0 0 75.386,271.246 C 75.386,281.178 91.586,284.11 91.586,284.11 91.586,284.11 107.786,262.529 107.786,252.597 107.71,247.122 103.87,244.935 99.139,247.656 Z"
       id="path126"
       style="fill:#eb4680;fill-opacity:1;stroke-width:1.11502" />
    <path
       class="e"
       d="M 26.539,215.353 27.624,214.153 C 18.907,206.23 14.29,193.333 14.29,176.889 14.29,135.833 43.453,85.624 79.179,64.966 L 78.369,63.573 C 42.142,84.425 12.669,135.299 12.669,176.824 12.67,193.804 17.466,207.122 26.539,215.353 Z"
       id="path134"
       style="fill:#b5ff76;fill-opacity:1;stroke-width:1.11502" />
    <path
       class="b"
       d="M 0.826,187.908 V 187.908 A 0.81,0.81 0 0 0 1.62,187.098 V 185.478 A 0.81,0.81 0 1 0 0,185.478 V 187.098 A 0.81,0.81 0 0 0 0.826,187.908 Z"
       id="path136"
       style="fill:#e31960;fill-opacity:1;stroke-width:1.11502" />
    <path
       class="b"
       d="M 45.414,244.101 A 0.794,0.794 0 0 0 46.224,243.307 0.81,0.81 0 0 0 45.43,242.481 27.5,27.5 0 0 1 42.19,242.351 0.813,0.813 0 0 0 42.06,243.971 C 43.146,244.052 44.247,244.101 45.3,244.101 Z M 50.275,243.923 V 243.923 C 51.344,243.842 52.43,243.712 53.515,243.567 A 0.818,0.818 0 1 0 53.288,241.947 C 52.219,242.093 51.182,242.206 50.048,242.303 A 0.808,0.808 0 1 0 50.242,243.903 Z M 37.459,243.356 A 0.794,0.794 0 0 0 38.253,242.692 0.81,0.81 0 0 0 37.605,241.752 C 36.568,241.558 35.531,241.331 34.527,241.071 A 0.814,0.814 0 0 0 34.105,242.643 C 35.158,242.918 36.228,243.143 37.346,243.356 Z M 29.731,241.169 A 0.816,0.816 0 0 0 30.039,239.597 C 29.067,239.224 28.095,238.787 27.155,238.333 A 0.812,0.812 0 1 0 26.442,239.791 C 27.414,240.261 28.418,240.715 29.442,241.103 A 0.631,0.631 0 0 0 29.701,241.152 Z M 22.554,237.459 A 0.81,0.81 0 0 0 23.008,235.968 C 22.133,235.385 21.274,234.768 20.448,234.121 A 0.814,0.814 0 0 0 19.448,235.401 C 20.307,236.065 21.198,236.713 22.121,237.329 A 0.858,0.858 0 0 0 22.558,237.459 Z M 16.349,232.372 A 0.875,0.875 0 0 0 16.916,232.145 0.81,0.81 0 0 0 16.916,230.995 C 16.171,230.25 15.458,229.472 14.777,228.678 A 0.81,0.81 0 1 0 13.546,229.731 C 14.259,230.557 15.004,231.351 15.766,232.145 A 0.875,0.875 0 0 0 16.382,232.372 Z M 11.229,226.183 A 0.744,0.744 0 0 0 11.683,226.053 0.826,0.826 0 0 0 11.91,224.919 C 11.31,224.06 10.743,223.153 10.21,222.262 A 0.81,0.81 0 1 0 8.817,223.072 Q 9.643,224.482 10.567,225.843 A 0.794,0.794 0 0 0 11.215,226.183 Z M 7.26,219.216 A 0.875,0.875 0 0 0 7.6,219.216 0.81,0.81 0 0 0 7.989,218.13 C 7.552,217.19 7.13,216.23 6.725,215.23 A 0.81401858,0.81401858 0 1 0 5.218,215.846 C 5.639,216.867 6.06,217.855 6.53,218.827 A 0.794,0.794 0 0 0 7.291,219.216 Z M 4.344,211.731 A 0.647,0.647 0 0 0 4.587,211.731 0.794,0.794 0 0 0 5.122,210.731 C 4.798,209.731 4.506,208.706 4.231,207.669 A 0.837,0.837 0 1 0 2.611,208.09 C 2.886,209.143 3.194,210.196 3.502,211.217 A 0.826,0.826 0 0 0 4.377,211.703 Z M 2.383,203.938 H 2.529 A 0.81,0.81 0 0 0 3.177,202.982 C 2.983,201.961 2.788,200.908 2.626,199.855 A 0.794,0.794 0 0 0 1.702,199.175 0.81,0.81 0 0 0 1.022,200.098 C 1.2,201.184 1.378,202.253 1.589,203.338 A 0.794,0.794 0 0 0 2.416,203.938 Z M 1.233,195.983 V 195.983 A 0.826,0.826 0 0 0 1.962,195.092 C 1.862,194.039 1.784,192.986 1.703,191.852 A 0.762,0.762 0 0 0 0.844,191.091 0.794,0.794 0 0 0 0.099,191.95 C 0.099,193.036 0.245,194.121 0.342,195.19 A 0.843,0.843 0 0 0 1.266,195.984 Z"
       id="path138"
       style="fill:#e31960;fill-opacity:1;stroke-width:1.11502" />
    <path
       class="b"
       d="M 58.198,242.686 H 58.376 L 59.996,242.313 A 0.826,0.826 0 0 0 60.579,241.325 0.81,0.81 0 0 0 59.607,240.742 L 57.987,241.098 A 0.815,0.815 0 1 0 58.165,242.718 Z"
       id="path140"
       style="fill:#e31960;fill-opacity:1;stroke-width:1.11502" />
    <path
       class="b"
       d="M 161.801,114.364 A 0.826,0.826 0 0 0 162.595,113.7 C 162.695,113.165 162.789,112.631 162.87,112.08 A 0.812,0.812 0 1 0 161.27,111.821 10.3,10.3 0 0 1 160.995,113.441 0.81,0.81 0 0 0 161.659,114.397 Z"
       id="path142"
       style="fill:#e31960;fill-opacity:1;stroke-width:1.11502" />
    <path
       class="b"
       d="M 12.649,130.633 A 0.826,0.826 0 0 0 13.394,130.133 Q 13.994,128.626 14.658,127.119 A 0.826,0.826 0 0 0 14.221,126.05 0.794,0.794 0 0 0 13.168,126.471 C 12.73,127.492 12.309,128.512 11.888,129.517 A 0.826,0.826 0 0 0 12.342,130.586 1.021,1.021 0 0 0 12.649,130.633 Z M 15.889,123.099 A 0.826,0.826 0 0 0 16.634,122.613 C 17.087,121.625 17.541,120.636 18.011,119.648 A 0.794,0.794 0 0 0 17.638,118.579 0.81,0.81 0 0 0 16.552,118.952 C 16.082,119.952 15.612,120.945 15.159,121.952 A 0.794,0.794 0 0 0 15.564,123.021 0.745,0.745 0 0 0 15.888,123.102 Z M 19.47,115.699 A 0.81,0.81 0 0 0 20.183,115.262 L 21.69,112.362 A 0.81,0.81 0 0 0 21.35,111.262 0.794,0.794 0 0 0 20.264,111.602 C 19.746,112.574 19.243,113.546 18.741,114.535 A 0.81,0.81 0 0 0 19.097,115.621 0.745,0.745 0 0 0 19.47,115.702 Z M 23.326,108.457 A 0.81,0.81 0 0 0 24.039,108.057 C 24.574,107.101 25.108,106.157 25.659,105.222 A 0.81,0.81 0 1 0 24.266,104.396 C 23.715,105.352 23.166,106.308 22.646,107.264 A 0.81,0.81 0 0 0 22.954,108.364 0.859,0.859 0 0 0 23.327,108.464 Z M 163.019,107.757 A 0.826,0.826 0 0 0 163.829,107.057 C 163.959,105.957 164.104,104.87 164.218,103.817 A 0.815,0.815 0 1 0 162.598,103.639 C 162.485,104.708 162.355,105.794 162.209,106.879 A 0.826,0.826 0 0 0 162.909,107.786 Z M 27.49,101.438 A 0.81,0.81 0 0 0 28.19,101.049 C 28.757,100.125 29.34,99.202 29.924,98.278 A 0.81,0.81 0 1 0 28.563,97.419 C 27.963,98.343 27.38,99.266 26.813,100.206 A 0.793,0.793 0 0 0 27.072,101.324 0.778,0.778 0 0 0 27.412,101.389 Z M 163.849,99.606 A 0.81,0.81 0 0 0 164.643,98.844 C 164.643,97.744 164.789,96.644 164.821,95.604 A 0.826,0.826 0 0 0 164.044,94.762 V 94.762 A 0.826,0.826 0 0 0 163.234,95.556 C 163.234,96.625 163.134,97.711 163.072,98.796 A 0.81,0.81 0 0 0 163.817,99.671 Z M 31.949,94.551 A 0.81,0.81 0 0 0 32.613,94.194 L 34.46,91.505 A 0.814,0.814 0 0 0 33.131,90.565 L 31.268,93.287 A 0.81,0.81 0 0 0 31.495,94.405 0.762,0.762 0 0 0 31.949,94.505 Z M 164.109,91.408 V 91.408 A 0.826,0.826 0 0 0 164.919,90.598 V 87.358 A 0.826,0.826 0 0 0 164.109,86.564 V 86.564 A 0.81,0.81 0 0 0 163.331,87.407 V 90.647 A 0.81,0.81 0 0 0 164.109,91.36 Z M 36.665,87.844 A 0.826,0.826 0 0 0 37.313,87.52 L 39.274,84.911 A 0.81,0.81 0 1 0 37.994,83.923 C 37.33,84.798 36.665,85.673 36.017,86.564 A 0.81,0.81 0 0 0 36.179,87.698 0.891,0.891 0 0 0 36.665,87.798 Z M 163.737,83.21 H 163.818 A 0.794,0.794 0 0 0 164.547,82.335 C 164.447,81.217 164.336,80.115 164.207,79.095 A 0.81,0.81 0 0 0 163.316,78.382 0.826,0.826 0 0 0 162.603,79.289 C 162.732,80.342 162.846,81.428 162.943,82.529 A 0.794,0.794 0 0 0 163.737,83.161 Z M 41.672,81.363 A 0.778,0.778 0 0 0 42.304,81.055 C 42.985,80.213 43.681,79.435 44.378,78.544 A 0.826,0.826 0 0 0 44.265,77.394 0.81,0.81 0 0 0 43.131,77.507 C 42.431,78.333 41.738,79.127 41.041,80.051 A 0.81,0.81 0 0 0 41.171,81.185 0.827,0.827 0 0 0 41.671,81.315 Z M 46.954,75.109 A 0.778,0.778 0 0 0 47.554,74.834 L 49.741,72.404 A 0.826,0.826 0 0 0 49.741,71.254 0.81,0.81 0 0 0 48.591,71.254 C 47.846,72.048 47.117,72.874 46.391,73.684 A 0.826,0.826 0 0 0 47.007,75.045 Z M 162.668,75.109 H 162.814 A 0.81,0.81 0 0 0 163.462,74.169 C 163.268,73.069 163.041,71.982 162.798,70.929 A 0.83119327,0.83119327 0 1 0 161.178,71.302 C 161.405,72.339 161.632,73.392 161.826,74.542 A 0.794,0.794 0 0 0 162.668,75.042 Z M 52.495,69.098 A 0.826,0.826 0 0 0 53.078,68.855 C 53.84,68.077 54.601,67.235 55.378,66.538 A 0.81,0.81 0 0 0 55.378,65.388 0.826,0.826 0 0 0 54.228,65.388 C 53.45,66.166 52.608,67.008 51.911,67.737 A 0.778,0.778 0 0 0 51.911,68.871 0.729,0.729 0 0 0 52.511,69.033 Z M 160.74,67.138 H 160.967 A 0.81,0.81 0 0 0 161.518,66.117 C 161.178,65.048 160.837,63.995 160.465,62.974 A 0.81,0.81 0 1 0 158.942,63.525 C 159.299,64.525 159.642,65.55 159.963,66.603 A 0.81,0.81 0 0 0 160.757,67.073 Z M 58.36,63.363 A 0.811,0.811 0 0 0 58.911,63.152 C 59.705,62.407 60.531,61.661 61.325,60.952 A 0.81,0.81 0 0 0 61.325,59.802 0.826,0.826 0 0 0 60.175,59.802 L 57.745,62.022 A 0.826,0.826 0 0 0 57.745,63.172 0.81,0.81 0 0 0 58.377,63.302 Z M 157.84,59.475 A 0.875,0.875 0 0 0 158.18,59.475 0.81,0.81 0 0 0 158.585,58.406 C 158.115,57.385 157.613,56.397 157.094,55.425 A 0.8081765,0.8081765 0 0 0 155.668,56.186 C 156.168,57.126 156.656,58.098 157.11,59.086 A 0.794,0.794 0 0 0 157.855,59.41 Z M 64.517,57.855 A 0.907,0.907 0 0 0 65.036,57.677 C 65.862,56.964 66.656,56.284 67.563,55.603 A 0.807,0.807 0 1 0 66.563,54.339 C 65.704,55.019 64.846,55.716 64.003,56.429 A 0.817,0.817 0 0 0 64.538,57.871 Z M 70.998,52.784 A 0.746,0.746 0 0 0 71.468,52.622 C 72.359,51.974 73.234,51.342 74.125,50.722 A 0.826,0.826 0 0 0 74.32,49.588 0.81,0.81 0 0 0 73.186,49.394 C 72.295,50.026 71.404,50.658 70.513,51.322 A 0.81,0.81 0 0 0 70.999,52.78 Z M 153.79,52.266 A 0.81,0.81 0 0 0 154.454,51.002 C 153.838,50.062 153.174,49.155 152.493,48.296 A 0.807,0.807 0 1 0 151.229,49.296 25.66,25.66 0 0 1 153.108,51.905 0.842,0.842 0 0 0 153.788,52.264 Z M 77.641,48.151 A 0.86,0.86 0 0 0 78.079,48.021 C 79.002,47.421 79.926,46.854 80.849,46.287 A 0.80701502,0.80701502 0 1 0 80.007,44.91 L 77.207,46.644 A 0.826,0.826 0 0 0 76.964,47.778 0.859,0.859 0 0 0 77.639,48.149 Z M 148.62,45.913 A 0.843,0.843 0 0 0 149.187,45.686 0.81,0.81 0 0 0 149.187,44.536 31.846,31.846 0 0 0 146.757,42.252 0.81,0.81 0 1 0 145.704,43.483 C 146.498,44.183 147.324,44.909 148.037,45.67 A 0.826,0.826 0 0 0 148.701,45.913 Z M 84.687,43.953 A 0.811,0.811 0 0 0 85.076,43.853 C 86.048,43.318 87.004,42.816 87.96,42.33 A 0.794,0.794 0 0 0 88.316,41.245 0.81,0.81 0 0 0 87.231,40.889 L 84.298,42.509 A 0.826,0.826 0 0 0 83.974,43.609 0.81,0.81 0 0 0 84.768,43.949 Z M 142.301,40.713 A 0.826,0.826 0 0 0 142.981,40.34 0.81,0.81 0 0 0 142.754,39.222 C 141.83,38.606 140.854,38.022 139.886,37.505 A 0.80519935,0.80519935 0 1 0 139.108,38.915 C 140.048,39.433 140.971,39.984 141.862,40.535 A 0.859,0.859 0 0 0 142.445,40.713 Z M 92.075,40.324 A 0.73,0.73 0 0 0 92.399,40.324 C 93.399,39.87 94.408,39.449 95.399,39.06 A 0.81102543,0.81102543 0 0 0 94.799,37.553 C 93.799,37.958 92.774,38.379 91.753,38.833 A 0.82604116,0.82604116 0 0 0 92.077,40.453 Z M 99.722,37.375 A 0.729,0.729 0 0 0 99.981,37.375 C 101.018,37.035 102.055,36.711 103.075,36.419 A 0.81,0.81 0 0 0 103.642,35.431 0.826,0.826 0 0 0 102.642,34.864 C 101.589,35.156 100.536,35.48 99.402,35.836 A 0.794,0.794 0 0 0 99.775,37.375 Z M 135.074,36.938 A 0.826,0.826 0 0 0 135.836,36.42 0.81,0.81 0 0 0 135.366,35.383 C 134.345,34.978 133.292,34.605 132.206,34.283 A 0.826,0.826 0 0 0 131.206,34.834 0.81,0.81 0 0 0 131.757,35.834 C 132.778,36.142 133.799,36.498 134.787,36.887 A 0.922,0.922 0 0 0 135.127,36.936 Z M 107.628,35.238 H 107.806 C 108.875,35.027 109.929,34.833 111.046,34.671 A 0.778,0.778 0 0 0 111.726,33.764 0.794,0.794 0 0 0 110.819,33.084 C 109.733,33.246 108.631,33.44 107.578,33.651 A 0.794,0.794 0 0 0 106.946,34.607 0.778,0.778 0 0 0 107.675,35.239 Z M 127.2,34.738 A 0.81328285,0.81328285 0 1 0 127.346,33.118 C 126.26,32.924 125.146,32.778 124.106,32.664 A 0.815,0.815 0 1 0 123.928,34.284 C 124.997,34.397 126.083,34.543 127.168,34.721 Z M 115.762,34.155 V 34.155 C 116.848,34.155 117.933,34.055 119.002,34.055 A 0.81,0.81 0 0 0 119.002,32.435 32.816,32.816 0 0 0 115.681,32.548 0.794,0.794 0 0 0 114.92,33.407 0.826,0.826 0 0 0 115.811,34.152 Z"
       id="path144"
       style="fill:#e31960;fill-opacity:1;stroke-width:1.11502" />
    <path
       class="b"
       d="M 10.255,137.072 A 0.777,0.777 0 0 0 11.016,136.537 L 11.583,135.03 A 0.843,0.843 0 0 0 11.097,133.977 0.826,0.826 0 0 0 10.06,134.463 L 9.493,135.986 A 0.81,0.81 0 0 0 9.979,137.023 Z"
       id="path146"
       style="fill:#e31960;fill-opacity:1;stroke-width:1.11502" />
    <path
       class="e"
       d="M 39.642,257.997 A 0.81,0.81 0 0 0 40.387,257.497 C 40.598,256.997 40.787,256.497 41.003,256.006 A 0.81,0.81 0 0 0 40.565,254.937 0.826,0.826 0 0 0 39.512,255.374 L 38.88,256.881 A 0.827,0.827 0 0 0 39.334,257.934 0.7,0.7 0 0 0 39.642,257.997 Z"
       id="path148"
       style="fill:#b5ff76;fill-opacity:1;stroke-width:1.11502" />
    <path
       class="e"
       d="M 62.004,333.474 V 333.474 A 21.51,21.51 0 0 0 65.244,333.312 0.794,0.794 0 0 0 65.973,332.437 0.843,0.843 0 0 0 65.098,331.692 29.346,29.346 0 0 1 61.971,331.854 0.81015801,0.81015801 0 1 0 62.003,333.474 Z M 57.143,333.134 A 0.812,0.812 0 1 0 57.256,331.514 30.814,30.814 0 0 1 54.21,330.882 0.81,0.81 0 0 0 53.222,331.449 0.794,0.794 0 0 0 53.789,332.437 27.129,27.129 0 0 0 57.029,333.117 Z M 69.894,332.567 H 70.056 C 71.093,332.34 72.162,332.081 73.297,331.773 A 0.826,0.826 0 0 0 73.848,330.773 0.81,0.81 0 0 0 72.848,330.222 C 71.811,330.514 70.79,330.773 69.786,330.984 A 0.815,0.815 0 0 0 69.964,332.604 Z M 49.48,330.833 A 0.82932744,0.82932744 0 1 0 49.836,329.213 24.631,24.631 0 0 1 47.114,327.722 0.81,0.81 0 0 0 46.239,329.083 26.744,26.744 0 0 0 49.139,330.703 0.842,0.842 0 0 0 49.544,330.832 Z M 77.639,330.217 H 77.931 C 78.919,329.828 79.924,329.407 80.931,328.953 A 0.842,0.842 0 0 0 81.331,327.867 0.81,0.81 0 0 0 80.246,327.478 C 79.274,327.915 78.302,328.337 77.346,328.709 A 0.81,0.81 0 0 0 76.876,329.762 0.826,0.826 0 0 0 77.637,330.216 Z M 42.951,326.361 A 0.794,0.794 0 0 0 43.551,326.102 0.81,0.81 0 0 0 43.551,324.952 25.387,25.387 0 0 1 41.412,322.716 0.826,0.826 0 0 0 40.262,322.616 0.794,0.794 0 0 0 40.262,323.75 26.638,26.638 0 0 0 42.547,326.15 0.744,0.744 0 0 0 42.936,326.361 Z M 37.929,320.156 A 0.844,0.844 0 0 0 38.35,320.026 0.794,0.794 0 0 0 38.609,318.926 C 38.074,318.051 37.572,317.126 37.102,316.172 A 0.794,0.794 0 0 0 36.033,315.799 0.81,0.81 0 0 0 35.66,316.885 25.217,25.217 0 0 0 37.28,319.769 0.827,0.827 0 0 0 37.912,320.158 Z M 34.543,312.898 A 0.822,0.822 0 0 0 34.818,312.898 0.81,0.81 0 0 0 35.318,311.861 Q 34.8,310.403 34.395,308.847 A 0.794,0.794 0 0 0 33.407,308.28 0.81,0.81 0 0 0 32.84,309.268 C 33.116,310.337 33.44,311.39 33.78,312.395 A 0.81,0.81 0 0 0 34.525,312.895 Z M 32.615,305.121 H 32.761 A 0.81,0.81 0 0 0 33.425,304.197 C 33.247,303.176 33.117,302.123 33.004,301.054 A 0.815,0.815 0 0 0 31.384,301.232 C 31.497,302.332 31.643,303.403 31.821,304.472 A 0.81,0.81 0 0 0 32.599,305.12 Z M 31.87,297.133 V 297.133 A 0.81,0.81 0 0 0 32.664,296.307 V 293.131 A 0.81,0.81 0 0 0 31.87,292.305 0.859,0.859 0 0 0 31.044,293.099 V 296.356 A 0.81,0.81 0 0 0 31.854,297.134 Z M 32.048,289.113 A 0.81,0.81 0 0 0 32.858,288.368 C 32.858,287.315 33.036,286.262 33.15,285.128 A 0.807,0.807 0 0 0 31.55,284.95 C 31.437,286.036 31.323,287.105 31.242,288.19 A 0.81,0.81 0 0 0 31.987,289.065 Z M 33.02,281.142 A 0.794,0.794 0 0 0 33.814,280.478 C 33.992,279.441 34.186,278.388 34.397,277.351 A 0.82604116,0.82604116 0 0 0 32.777,277.027 C 32.567,278.096 32.377,279.149 32.194,280.267 A 0.826,0.826 0 0 0 32.858,281.207 Z M 34.64,273.3 A 0.81,0.81 0 0 0 35.418,272.684 C 35.677,271.663 35.953,270.626 36.244,269.606 A 0.826,0.826 0 0 0 35.677,268.606 0.81,0.81 0 0 0 34.688,269.173 C 34.38,270.21 34.105,271.247 33.846,272.3 A 0.81,0.81 0 0 0 34.429,273.272 Z M 36.876,265.588 A 0.794,0.794 0 0 0 37.637,265.037 C 37.977,264.037 38.317,263.028 38.674,262.023 A 0.81,0.81 0 0 0 38.188,260.986 0.794,0.794 0 0 0 37.151,261.472 C 36.778,262.493 36.438,263.514 36.098,264.518 A 0.794,0.794 0 0 0 36.616,265.539 0.664,0.664 0 0 0 36.892,265.588 Z"
       id="path150"
       style="fill:#b5ff76;fill-opacity:1;stroke-width:1.11502" />
    <path
       class="e"
       d="M 84.93,326.854 A 0.859,0.859 0 0 0 85.319,326.754 L 86.745,325.944 A 0.794,0.794 0 0 0 87.037,324.844 0.81,0.81 0 0 0 85.937,324.536 L 84.544,325.33 A 0.826,0.826 0 0 0 84.22,326.43 0.794,0.794 0 0 0 84.93,326.854 Z"
       id="path152"
       style="fill:#b5ff76;fill-opacity:1;stroke-width:1.11502" />
    <path
       class="e"
       d="M 41.558,258.726 V 258.726 A 0.81,0.81 0 0 0 42.32,257.867 L 42.061,253.541 A 0.875,0.875 0 0 0 41.591,252.861 0.794,0.794 0 0 0 40.765,252.942 L 37.12,255.65 A 0.81,0.81 0 0 0 36.958,256.784 0.778,0.778 0 0 0 38.076,256.946 L 40.523,255.131 40.701,257.966 A 0.81,0.81 0 0 0 41.56,258.727 Z"
       id="path154"
       style="fill:#b5ff76;fill-opacity:1;stroke-width:1.11502" />
    <path
       class="d"
       d="M 335.093,115.047 C 335.093,109.733 342.627,105.407 351.83,105.326 361.033,105.245 368.486,109.603 368.469,114.934 368.469,119.795 362.15,123.829 354.033,124.477 V 127.329 C 355.572,127.556 356.706,128.366 356.706,129.322 V 138.522 C 356.706,139.689 355.086,140.612 353.077,140.628 H 350.339 C 348.346,140.628 346.726,139.704 346.739,138.554 V 129.354 C 346.739,128.382 347.889,127.572 349.429,127.329 V 124.639 C 341.25,123.925 335.077,119.923 335.093,115.047 Z"
       id="path156"
       style="stroke-width:1.11502" />
    <path
       class="c"
       d="M 133.269,492.027 422.911,324.517 C 434.123,318.029 443.211,300.64 443.211,285.669 V 21.906 C 443.211,6.934 434.122,0.057 422.911,6.545 L 133.269,174.039 C 122.057,180.527 112.969,197.9 112.969,212.871 V 476.65 C 112.903,491.622 122.058,498.499 133.269,492.027 Z"
       id="path158"
       style="fill:#ffebd1;fill-opacity:1;stroke-width:1.11502" />
    <path
       class="h"
       d="M 125.276,169.89 414.902,2.446 C 419.341,-0.117 423.44,-0.603 426.794,0.694 427.215,0.856 435.154,4.96 435.543,5.187 V 5.187 C 432.092,3.565 427.701,3.808 422.922,6.582 L 133.297,174.042 C 122.085,180.53 112.997,197.902 112.997,212.874 V 476.651 C 112.997,485.994 116.545,492.19 121.924,493.942 A 3.337,3.337 0 0 1 120.142,493.342 C 119.883,493.196 111.474,488.642 111.231,488.476 107.375,485.767 104.961,480.22 104.961,472.515 V 208.722 C 104.959,193.75 114.065,176.362 125.276,169.89 Z"
       id="path160"
       style="fill:#ab7126;fill-opacity:1;stroke-width:1.11502" />
    <path
       class="j"
       d="M 431.806,45.297 V 285.656 C 431.806,297.401 426.233,308.871 417.224,314.614 L 130.726,480.347 130.24,480.623 A 3.872,3.872 0 0 1 124.44,477.249 V 223.133 Z"
       id="path166"
       style="fill:#8a5b1f;fill-opacity:1;stroke-width:1.11502" />
    <path
       class="k"
       d="M 124.78,478.447 125.25,478.187 411.797,312.456 C 420.821,306.713 426.379,295.243 426.379,283.498 V 48.412 L 431.779,45.297 V 285.656 C 431.779,297.401 426.205,308.871 417.197,314.614 L 130.726,480.347 130.24,480.623 A 3.87,3.87 0 0 1 124.683,478.53 Z"
       id="path168"
       style="fill:#ab7126;fill-opacity:1;stroke-width:1.11502" />
    <path
       class="d"
       d="M 140.649,194.299 A 12.249,12.249 0 0 1 135.059,203.923 C 131.981,205.705 129.486,204.279 129.486,200.683 A 12.314,12.314 0 0 1 135.059,191.043 C 138.202,189.33 140.649,190.755 140.649,194.299 Z"
       id="path170"
       style="fill:#eb4680;fill-opacity:1;stroke-width:1.11502" />
    <path
       class="d"
       d="M 155.097,185.917 A 12.346,12.346 0 0 1 149.507,195.557 C 146.429,197.339 143.918,195.913 143.918,192.317 A 12.345,12.345 0 0 1 149.507,182.596 C 152.586,180.879 155.097,182.369 155.097,185.917 Z"
       id="path172"
       style="fill:#eb4680;fill-opacity:1;stroke-width:1.11502" />
    <path
       class="d"
       d="M 169.481,177.531 A 12.314,12.314 0 0 1 163.907,187.171 C 160.813,188.953 158.317,187.527 158.317,183.931 A 12.249,12.249 0 0 1 163.907,174.307 C 166.986,172.575 169.481,173.999 169.481,177.531 Z"
       id="path174"
       style="fill:#eb4680;fill-opacity:1;stroke-width:1.11502" />
    <path
       class="a"
       d="M 242.967,169.537 264.029,157.402 C 266.151,156.187 267.869,157.159 267.869,159.602 A 8.474,8.474 0 0 1 264.029,166.229 L 242.966,178.364 C 240.844,179.579 239.11,178.607 239.11,176.177 A 8.506,8.506 0 0 1 242.967,169.537 Z M 208.36,189.514 229.422,177.379 C 231.544,176.164 233.278,177.136 233.278,179.579 A 8.489,8.489 0 0 1 229.422,186.206 L 208.36,198.341 C 206.237,199.556 204.52,198.584 204.52,196.141 A 8.473,8.473 0 0 1 208.36,189.514 Z M 173.769,209.492 194.831,197.357 C 196.953,196.142 198.671,197.114 198.671,199.557 A 8.474,8.474 0 0 1 194.831,206.184 L 173.769,218.319 C 171.646,219.534 169.913,218.562 169.913,216.119 A 8.49,8.49 0 0 1 173.769,209.492 Z M 139.162,229.485 160.224,217.35 C 162.346,216.135 164.064,217.107 164.064,219.537 A 8.49,8.49 0 0 1 160.224,226.18 L 139.161,238.315 C 137.039,239.53 135.321,238.558 135.321,236.115 A 8.473,8.473 0 0 1 139.161,229.484 Z"
       id="path176"
       style="fill:#d1923f;fill-opacity:1;stroke-width:1.11502" />
    <path
       class="l"
       d="M 326.163,186.915 V 277.37 L 316.263,271.57 V 180.87 Z"
       id="path178"
       style="fill:#ab7126;fill-opacity:1;stroke-width:1.11502" />
    <path
       class="h"
       d="M 325.822,186.659 V 277.114 L 523.145,163.944 V 73.246 Z"
       id="path180"
       style="fill:#d1923f;fill-opacity:1;stroke-width:1.11502" />
    <path
       class="a"
       d="M 523.145,73.245 325.822,186.659 315.955,180.616 513.359,67.283 Z"
       id="path182"
       style="fill:#e8b572;fill-opacity:1;stroke-width:1.11502" />
    <path
       class="d"
       d="M 424.914,204.56 V 200.72 L 487.194,165.32 V 169.16 Z"
       id="path186"
       style="fill:#b5ff76;fill-opacity:1;stroke-width:1.11502" />
    <path
       class="d"
       d="M 514.145,93.806 V 97.646 L 409.464,157.546 V 153.686 Z"
       id="path188"
       style="fill:#b5ff76;fill-opacity:1;stroke-width:1.11502" />
    <path
       class="d"
       d="M 477.262,147.036 514.121,125.747 V 129.587 L 477.262,150.876 Z"
       id="path190"
       style="fill:#b5ff76;fill-opacity:1;stroke-width:1.11502" />
    <path
       class="d"
       d="M 452.39,177.454 V 181.294 L 437.176,189.525 V 185.685 Z"
       id="path192"
       style="fill:#b5ff76;fill-opacity:1;stroke-width:1.11502" />
    <path
       class="d"
       d="M 454.683,144.09 514.128,109.774 V 113.614 L 454.683,147.93 Z"
       id="path194"
       style="fill:#b5ff76;fill-opacity:1;stroke-width:1.11502" />
    <path
       class="d"
       d="M 492.342,130.336 514.117,117.763 V 121.603 L 492.342,134.176 Z"
       id="path196"
       style="fill:#b5ff76;fill-opacity:1;stroke-width:1.11502" />
    <path
       class="d"
       d="M 497.912,154.959 456.127,179.084 V 175.244 L 497.912,151.119 Z"
       id="path198"
       style="fill:#b5ff76;fill-opacity:1;stroke-width:1.11502" />
    <path
       class="d"
       d="M 488.616,132.533 V 136.373 L 429.949,169.7 V 165.86 Z"
       id="path200"
       style="fill:#b5ff76;fill-opacity:1;stroke-width:1.11502" />
    <path
       class="d"
       d="M 473.542,149.234 V 153.09 L 444.2,170.021 V 166.181 Z"
       id="path202"
       style="fill:#b5ff76;fill-opacity:1;stroke-width:1.11502" />
    <path
       class="d"
       d="M 501.655,148.913 514.114,141.719 V 145.559 L 501.655,152.749 Z"
       id="path204"
       style="fill:#b5ff76;fill-opacity:1;stroke-width:1.11502" />
    <path
       class="d"
       d="M 450.995,150.157 409.534,173.557 V 169.717 L 450.995,146.317 Z"
       id="path206"
       style="fill:#b5ff76;fill-opacity:1;stroke-width:1.11502" />
    <path
       class="d"
       d="M 426.245,171.919 409.557,181.543 V 177.703 L 426.245,168.063 Z"
       id="path208"
       style="fill:#b5ff76;fill-opacity:1;stroke-width:1.11502" />
    <path
       class="d"
       d="M 514.145,105.644 409.464,165.526 V 161.686 L 514.145,101.804 Z"
       id="path210"
       style="fill:#b5ff76;fill-opacity:1;stroke-width:1.11502" />
    <path
       class="d"
       d="M 440.473,172.215 409.544,189.535 V 185.695 L 440.473,168.375 Z"
       id="path212"
       style="fill:#b5ff76;fill-opacity:1;stroke-width:1.11502" />
    <path
       class="d"
       d="M 490.932,163.102 514.117,149.719 V 153.559 L 490.932,166.942 Z"
       id="path214"
       style="fill:#b5ff76;fill-opacity:1;stroke-width:1.11502" />
    <path
       class="d"
       d="M 421.21,206.776 409.561,213.5 V 209.66 L 421.21,202.936 Z"
       id="path216"
       style="fill:#b5ff76;fill-opacity:1;stroke-width:1.11502" />
    <path
       class="d"
       d="M 433.416,191.727 409.551,205.515 V 201.675 L 433.416,187.887 Z"
       id="path218"
       style="fill:#b5ff76;fill-opacity:1;stroke-width:1.11502" />
    <path
       class="d"
       d="M 514.145,137.603 409.464,197.485 V 193.645 L 514.145,133.763 Z"
       id="path220"
       style="fill:#b5ff76;fill-opacity:1;stroke-width:1.11502" />
    <path
       class="l"
       d="M 350.839,185.586 385.252,165.674 C 391.263,162.207 396.14,165.885 396.14,173.921 V 213.778 C 396.14,221.878 391.279,231.13 385.252,234.597 L 350.839,254.509 C 344.812,257.976 339.939,254.298 339.939,246.278 V 206.405 C 339.935,198.385 344.811,189.053 350.839,185.586 Z"
       id="path222"
       style="fill:#8a5b1f;fill-opacity:1;stroke-width:1.11502" />
    <path
       class="m"
       d="M 346.577,251.235 380.99,231.323 C 387.017,227.856 391.89,218.54 391.89,210.504 V 170.68 A 12.962,12.962 0 0 0 390.545,164.458 C 393.883,165.009 396.135,168.458 396.135,173.92 V 213.777 C 396.135,221.877 391.274,231.129 385.247,234.596 L 350.839,254.508 C 346.724,256.89 343.139,255.901 341.28,252.483 A 8.1,8.1 0 0 0 346.58,251.235 Z"
       id="path224"
       style="fill:#ab7126;fill-opacity:1;stroke-width:1.11502" />
    <path
       class="n"
       d="M 377.572,196.732 411.985,176.832 C 417.996,173.349 422.873,177.043 422.873,185.063 V 224.903 C 422.873,232.923 418.012,242.239 411.985,245.722 L 377.572,265.634 C 371.545,269.117 366.672,265.423 366.672,257.403 V 217.552 C 366.668,209.532 371.544,200.216 377.572,196.732 Z"
       id="path226"
       style="fill:#b5ff76;fill-opacity:1;stroke-width:1.11502" />
    <path
       class="o"
       d="M 372.45,193.439 406.863,173.539 A 7.145,7.145 0 0 1 413.663,172.794 V 172.794 L 419.625,176.294 V 176.294 A 6.9,6.9 0 0 0 412.448,176.829 L 378.035,196.729 C 372.008,200.212 367.135,209.529 367.135,217.549 V 257.392 C 367.135,261.292 368.302,264.148 370.181,265.692 L 366.941,263.505 A 9.8,9.8 0 0 1 361.611,254.105 V 214.265 C 361.562,206.239 366.439,196.923 372.45,193.439 Z"
       id="path228"
       style="fill:#8ce83d;fill-opacity:1;stroke-width:1.11502" />
    <path
       class="d"
       d="M 413.751,187.877 V 233.485 L 376.487,255.034 V 209.393 Z M 378.82,250.902 411.354,232.108 V 191.977 L 378.82,210.771 Z"
       id="path232"
       style="fill:#eb4680;fill-opacity:1;stroke-width:1.11502" />
    <path
       class="d"
       d="M 384.619,217.501 C 384.619,220.501 386.741,221.701 389.334,220.191 A 10.369,10.369 0 0 0 394.049,212.091 C 394.049,209.11 391.943,207.891 389.334,209.401 A 10.434,10.434 0 0 0 384.619,217.501 Z"
       id="path234"
       style="fill:#eb4680;fill-opacity:1;stroke-width:1.11502" />
    <path
       class="d"
       d="M 412.503,221.339 402.782,208.779 392.913,233.746 385.736,227.913 377.813,249.446 377.975,251.617 412.355,233.228 Z"
       id="path236"
       style="fill:#eb4680;fill-opacity:1;stroke-width:1.11502" />
    <path
       class="p"
       d="M 72.893,156.028 C 72.893,162.217 75.032,166.608 78.499,168.728 L 83.96748,171.63131 C 95.78353,167.85806 117.04998,125.74545 112.63073,122.96131 L 106.879,119.961 C 103.266,118.001 98.34,118.341 92.897,121.5 81.848,127.885 72.893,143.342 72.893,156.028 Z"
       id="path238"
       sodipodi:nodetypes="scccccs"
       style="fill:#66df00;fill-opacity:1;stroke-width:1.11502" />
    <ellipse
       class="q"
       cx="-159.36577"
       cy="77.553825"
       rx="16.299"
       ry="28.224001"
       transform="matrix(-0.86330748,-0.50467831,-0.50467831,0.86330748,0,0)"
       id="ellipse242"
       style="fill:#95eb4c;fill-opacity:1;stroke-width:1.11502" />
    <path
       class="l"
       d="M 83.08055,355.04545 V 465.848 L 72.827,460.064 V 349.00245 Z"
       id="path244"
       sodipodi:nodetypes="ccccc"
       style="fill:#ab7126;fill-opacity:1;stroke-width:1.11502" />
    <path
       class="h"
       d="M 82.695,355.04645 V 465.848 L 298.65,341.66345 V 230.93945 Z"
       id="path246"
       sodipodi:nodetypes="ccccc"
       style="fill:#d1923f;fill-opacity:1;stroke-width:1.11502" />
    <path
       class="a"
       d="M 298.65,231.077 82.695,355.184 72.828,349.141 288.864,225.131 Z"
       id="path248"
       style="fill:#e8b572;fill-opacity:1;stroke-width:1.11502" />
    <ellipse
       class="l"
       cx="-305.8602"
       cy="266.23059"
       rx="27.591999"
       ry="47.778999"
       transform="matrix(-0.86330748,-0.50467831,-0.50467831,0.86330748,0,0)"
       id="ellipse252"
       style="fill:#ab7126;fill-opacity:1;stroke-width:1.11502" />
    <path
       class="l"
       d="M 224.499,291.81 231.79,287.61 V 369.721 L 224.499,373.934 Z M 213.999,287.695 221.29,283.495 V 375.688 L 213.999,379.9 Z M 203.209,306.246 210.484,302.033 V 381.86 L 203.209,386.072 Z M 253.437,312.03 V 357.023 L 246.146,361.223 V 316.242 Z M 235.337,299.522 242.628,295.322 V 363.192 L 235.337,367.405 Z M 192.645,329.042 199.92,324.842 V 388.03 L 192.645,392.242 Z M 182.245,355.111 189.537,350.898 V 394.109 L 182.246,398.322 Z M 256.92,304.221 264.195,300.008 V 350.488 L 256.92,354.688 Z M 285.808,307.202 V 337.775 L 278.517,341.988 V 311.414 Z M 267.708,295.196 274.999,290.996 V 343.944 L 267.708,348.156 Z"
       id="path256"
       style="fill:#ab7126;fill-opacity:1;stroke-width:1.11502" />
    <path
       class="b"
       d="M 224.499,324.056 231.79,319.843 V 369.729 L 224.499,373.942 Z M 213.999,301.373 221.29,297.16 V 375.691 L 213.999,379.903 Z M 203.209,320.815 210.484,316.603 V 381.848 L 203.209,386.06 Z M 253.435,322.954 V 356.978 L 246.144,361.178 V 327.151 Z M 235.335,321.609 242.626,317.409 V 363.196 L 235.335,367.408 Z M 256.949,308.357 264.224,304.144 V 350.498 L 256.949,354.698 Z M 285.839,328.933 V 337.779 L 278.548,341.991 V 333.129 Z M 267.739,328.933 275.03,324.72 V 343.935 L 267.739,348.148 Z M 192.639,340.777 199.881,336.629 V 388.054 L 192.606,392.267 Z M 182.239,361.483 189.53,357.283 V 394.081 L 182.239,398.293 Z"
       id="path258"
       style="fill:#f0d1a8;fill-opacity:1;stroke-width:1.11502" />
    <path
       class="d"
       d="M 203.234,321.679 210.525,317.467 V 316.559 L 203.234,320.759 Z"
       id="path260"
       style="stroke-width:1.11502" />
    <path
       class="d"
       d="M 214.026,302.198 221.317,297.988 V 297.081 L 214.026,301.293 Z"
       id="path262"
       style="stroke-width:1.11502" />
    <path
       class="d"
       d="M 182.281,362.409 189.556,358.209 V 357.285 L 182.281,361.498 Z"
       id="path264"
       style="stroke-width:1.11502" />
    <path
       class="d"
       d="M 224.51,324.906 231.785,320.696 V 319.789 L 224.51,324.001 Z"
       id="path266"
       style="stroke-width:1.11502" />
    <path
       class="d"
       d="M 192.652,341.679 199.943,337.466 V 336.559 L 192.652,340.771 Z"
       id="path268"
       style="stroke-width:1.11502" />
    <path
       class="d"
       d="M 267.662,329.821 274.953,325.609 V 324.702 L 267.662,328.915 Z"
       id="path270"
       style="stroke-width:1.11502" />
    <path
       class="d"
       d="M 256.87,309.205 264.161,304.993 V 304.086 L 256.87,308.286 Z"
       id="path272"
       style="stroke-width:1.11502" />
    <path
       class="d"
       d="M 278.454,333.098 V 334.005 L 285.729,329.805 V 328.898 Z"
       id="path274"
       style="stroke-width:1.11502" />
    <path
       class="d"
       d="M 235.286,322.473 242.577,318.273 V 317.35 L 235.286,321.562 Z"
       id="path276"
       style="stroke-width:1.11502" />
    <path
       class="d"
       d="M 246.078,328.021 253.369,323.821 V 322.914 L 246.078,327.114 Z"
       id="path278"
       style="stroke-width:1.11502" />
    <path
       class="p"
       d="M 162.855,369.706 C 162.417,353.506 150.606,347.023 136.138,355.367 128.685,359.677 121.945,367.081 117.085,375.555 L 111.738,374.21 C 117.83,363.177 126.514,353.439 136.138,347.882 154.349,337.367 169.19,345.682 169.417,366.382 L 165.14,370.27 Z"
       id="path280"
       style="fill:#66df00;fill-opacity:1;stroke-width:1.11502" />
    <path
       class="p"
       d="M 122.715,420.499 A 23.055,23.055 0 0 0 136.13,416.935 C 149.837,409.012 161.162,390.574 162.701,374.421 L 169.182,371.181 C 169.182,371.294 171.369,371.748 171.353,371.861 169.522,391.854 153.207,414.537 136.13,424.42 129.925,428.001 125.73,429.88 120.754,429.281 120.543,429.281 118.729,428.73 118.518,428.714 Z"
       id="path282"
       style="fill:#66df00;fill-opacity:1;stroke-width:1.11502" />
    <path
       class="p"
       d="M 114.583,380.61 A 51.116,51.116 0 0 0 109.398,401.673 C 109.398,411.394 113.351,417.745 119.492,419.835 L 115.36,428.035 C 107.745,425.41 102.868,417.488 102.868,405.45 A 63.56,63.56 0 0 1 109.349,379.268 Z"
       id="path284"
       style="fill:#66df00;fill-opacity:1;stroke-width:1.11502" />
    <path
       class="p"
       d="M 126.942,393.95 A 22.374,22.374 0 0 0 131.624,388.328 C 132.402,387.028 132.385,385.622 131.624,385.185 A 6.074,6.074 0 0 1 129.224,382.512 C 128.398,382.739 127.377,382.431 127.377,381.312 A 4.52,4.52 0 0 1 128.577,378.266 14.906,14.906 0 0 1 136.133,365.016 6.967,6.967 0 0 1 140.718,363.736 22.553,22.553 0 0 1 143.44,364.481 C 144.979,365.242 143.553,366.895 143.667,369.568 144.348,369.406 144.867,370.068 144.867,371.188 A 5.444,5.444 0 0 1 143.02,374.526 27.545,27.545 0 0 1 140.62,379.97 C 139.875,381.282 139.842,382.708 140.62,383.113 A 6.205,6.205 0 0 0 145.302,383.324 3.419,3.419 0 0 1 147.263,383.243 22.613,22.613 0 0 1 149.596,383.891 C 150.649,384.41 149.45,385.171 149.45,386.969 V 392.04 A 3.387,3.387 0 0 1 147.83,394.713 L 126.071,409.149 C 125.699,409.376 123.56,408.614 123.3,408.501 A 1.122,1.122 0 0 1 122.733,407.464 V 402.377 A 12.087,12.087 0 0 1 126.942,393.95 Z"
       id="path286"
       style="fill:#66df00;fill-opacity:1;stroke-width:1.11502" />
    <path
       class="r"
       d="M 165.152,370.326 C 164.715,354.126 152.903,347.643 138.435,356.003 130.982,360.297 124.242,367.717 119.381,376.174 L 114.034,374.829 C 120.126,363.795 128.81,354.074 138.434,348.501 156.645,337.986 171.486,346.314 171.713,367.02 Z"
       id="path296"
       style="fill:#95eb4c;fill-opacity:1;stroke-width:1.11502" />
    <path
       class="r"
       d="M 125.013,421.131 A 23.088,23.088 0 0 0 138.428,417.567 C 152.135,409.644 163.46,391.206 164.999,375.053 L 171.48,371.813 C 169.73,392.001 155.554,415.185 138.38,425.101 131.899,428.827 125.888,430.188 120.768,429.459 Z"
       id="path298"
       style="fill:#95eb4c;fill-opacity:1;stroke-width:1.11502" />
    <path
       class="r"
       d="M 116.88,381.226 A 51.134,51.134 0 0 0 111.695,402.289 C 111.695,412.01 115.648,418.361 121.789,420.451 L 117.658,428.551 C 110.043,425.943 105.166,418.004 105.166,405.982 A 63.561,63.561 0 0 1 111.517,379.897 Z"
       id="path300"
       style="fill:#95eb4c;fill-opacity:1;stroke-width:1.11502" />
    <path
       class="r"
       d="M 129.309,394.582 A 23.029,23.029 0 0 0 133.991,388.96 C 134.769,387.66 134.752,386.254 133.991,385.817 A 6.074,6.074 0 0 1 131.591,383.144 C 130.765,383.371 129.744,383.063 129.744,381.944 A 4.488,4.488 0 0 1 130.944,378.898 14.905,14.905 0 0 1 138.494,365.645 C 144.148,362.405 145.834,365.499 146.028,370.181 146.708,370.035 147.228,370.7 147.228,371.801 A 5.444,5.444 0 0 1 145.381,375.139 27.025,27.025 0 0 1 142.981,380.567 C 142.22,381.879 142.203,383.321 142.981,383.726 A 6.125,6.125 0 0 0 147.663,383.92 C 150.045,383.207 151.811,384.649 151.811,387.565 V 392.652 A 3.435,3.435 0 0 1 150.191,395.325 L 126.65,408.918 C 125.791,409.418 125.03,409.018 125.03,408.043 V 403.085 A 12.054,12.054 0 0 1 129.309,394.582 Z"
       id="path302"
       style="fill:#95eb4c;fill-opacity:1;stroke-width:1.11502" />
    <path
       class="o"
       d="M 297.055,327.492 V 373.749 L 289.31,369.488 V 322.972 Z"
       id="path304"
       style="fill:#e31960;fill-opacity:1;stroke-width:1.11502" />
    <path
       class="n"
       d="M 296.834,326.951 V 373.706 L 467.994,274.892 V 227.876 Z"
       id="path306"
       style="fill:#eb4680;fill-opacity:1;stroke-width:1.11502"
       sodipodi:nodetypes="ccccc" />
    <path
       class="s"
       d="M 467.998,228.33 296.838,327.405 289.126,322.885 460.351,223.907 Z"
       id="path308"
       style="fill:#ed5b8f;fill-opacity:1;stroke-width:1.11502" />
    <path
       class="d"
       d="M 305.547,359.686 459.562,269.798 V 242.546 L 305.547,332.434 Z"
       id="path312"
       style="fill:#b5ff76;fill-opacity:1;stroke-width:1.11502" />
    <path
       class="m"
       d="M 362.062,303.197 358.951,304.997 357.509,319.87 V 319.87 L 355.972,306.713 352.456,308.738 350.917,323.676 V 323.676 L 349.475,310.455 346.688,312.075 348.762,330.383 352.796,328.05 354.27,315.38 V 315.38 L 355.744,326.349 360.037,323.87 Z"
       id="path314"
       style="fill:#e31960;fill-opacity:1;stroke-width:1.11502" />
    <path
       class="m"
       d="M 343.65,313.936 340.539,315.736 339.097,330.609 V 330.609 L 337.558,317.437 334.042,319.478 332.503,334.4 V 334.4 L 331.061,321.2 328.274,322.82 330.348,341.128 334.382,338.811 335.856,326.141 V 326.141 L 337.33,337.11 341.624,334.631 Z"
       id="path316"
       style="fill:#e31960;fill-opacity:1;stroke-width:1.11502" />
    <path
       class="m"
       d="M 325.092,324.513 321.981,326.313 320.539,341.186 V 341.186 L 319,328.03 315.484,330.055 313.945,344.993 V 344.993 L 312.503,331.772 309.716,333.392 311.741,351.749 315.775,349.432 317.233,336.762 V 336.762 L 318.707,347.731 323.082,345.22 Z"
       id="path318"
       style="fill:#e31960;fill-opacity:1;stroke-width:1.11502" />
    <path
       class="p"
       d="M 390.346,89.024 V 121.407 L 385.485,118.717 V 86.091 Z"
       id="path320"
       sodipodi:nodetypes="ccccc"
       style="fill:#e31960;fill-opacity:1;stroke-width:1.11502" />
    <path
       class="q"
       d="M 390.283,88.918 V 121.299 L 418.993,104.585 V 72.084 Z"
       id="path322"
       sodipodi:nodetypes="ccccc"
       style="fill:#eb4680;fill-opacity:1;stroke-width:1.11502" />
    <path
       class="r"
       d="M 418.995,72.207 390.285,89.041 385.457,86.108 414.232,69.357 Z"
       id="path324"
       style="fill:#ed5b8f;fill-opacity:1;stroke-width:1.11502" />
    <path
       class="f"
       d="M 365.139,78.284 V 130.519 L 357.265,126.177 V 73.537 Z"
       id="path328"
       style="fill:#8ce83d;fill-opacity:1;stroke-width:1.11502" />
    <path
       class="t"
       d="M 411.528,51.016 365.028,78.284 357.219,73.537 403.816,46.415 Z"
       id="path330"
       style="fill:#c2ff8e;fill-opacity:1;stroke-width:1.11502" />
    <path
       class="e"
       d="M 411.525,51.017 V 72.679 L 386.914,87.115 V 117.866 L 365.025,130.52 V 78.287 Z"
       id="path334"
       style="fill:#b5ff76;fill-opacity:1;stroke-width:1.11502" />
    <path
       class="o"
       d="M 265.891,204.5875 V 240.715 L 260.447,237.715 V 201.3145 Z"
       id="path336"
       sodipodi:nodetypes="ccccc"
       style="fill:#e31960;fill-opacity:1;stroke-width:1.11502" />
    <path
       class="n"
       d="M 265.833,204.5765 V 240.704 L 297.933,222.153 V 185.7495 Z"
       id="path338"
       sodipodi:nodetypes="ccccc"
       style="fill:#eb4680;fill-opacity:1;stroke-width:1.11502" />
    <path
       class="s"
       d="M 297.932,185.796 265.832,204.623 260.421,201.35 292.602,182.616 Z"
       id="path340"
       style="fill:#ed5b8f;fill-opacity:1;stroke-width:1.11502" />
    <path
       class="o"
       d="M 223.823,228.9205 V 265.049 L 218.379,262.049 V 225.6475 Z"
       id="path344"
       sodipodi:nodetypes="ccccc"
       style="fill:#e31960;fill-opacity:1;stroke-width:1.11502" />
    <path
       class="n"
       d="M 223.768,228.9105 V 265.039 L 255.868,246.488 V 210.0835 Z"
       id="path346"
       sodipodi:nodetypes="ccccc"
       style="fill:#eb4680;fill-opacity:1;stroke-width:1.11502" />
    <path
       class="s"
       d="M 255.868,210.128 223.768,228.955 218.357,225.682 250.538,206.948 Z"
       id="path348"
       style="fill:#ed5b8f;fill-opacity:1;stroke-width:1.11502" />
    <path
       class="o"
       d="M 182.031,252.9775 V 289.106 L 176.587,286.106 V 249.7045 Z"
       id="path352"
       sodipodi:nodetypes="ccccc"
       style="fill:#e31960;fill-opacity:1;stroke-width:1.11502" />
    <path
       class="n"
       d="M 181.962,252.9695 V 289.095 L 214.062,270.544 V 234.1425 Z"
       id="path354"
       sodipodi:nodetypes="ccccc"
       style="fill:#eb4680;fill-opacity:1;stroke-width:1.11502" />
    <path
       class="s"
       d="M 214.063,234.18 181.963,253.007 176.563,249.734 208.749,231.021 Z"
       id="path356"
       style="fill:#ed5b8f;fill-opacity:1;stroke-width:1.11502" />
    <path
       class="o"
       d="M 140.772,276.4995 V 312.627 L 135.328,309.627 V 273.2265 Z"
       id="path360"
       sodipodi:nodetypes="ccccc"
       style="fill:#e31960;fill-opacity:1;stroke-width:1.11502" />
    <path
       class="n"
       d="M 140.706,276.4925 V 312.618 L 172.806,294.067 V 257.6655 Z"
       id="path362"
       sodipodi:nodetypes="ccccc"
       style="fill:#eb4680;fill-opacity:1;stroke-width:1.11502" />
    <path
       class="s"
       d="M 172.808,257.7 140.708,276.527 135.308,273.254 167.494,254.541 Z"
       id="path364"
       style="fill:#ed5b8f;fill-opacity:1;stroke-width:1.11502" />
    <path
       class="d"
       d="M 191.6,268.311 A 13.833,13.833 0 0 0 194.581,264.763 C 195.067,263.937 195.051,263.046 194.581,262.77 A 3.839,3.839 0 0 1 193.074,261.15 C 192.556,261.28 191.907,261.15 191.907,260.388 A 2.884,2.884 0 0 1 192.653,258.46 9.477,9.477 0 0 1 197.513,250.067 C 201.094,248.009 202.163,249.967 202.293,252.951 202.714,252.851 203.038,253.275 203.038,254.004 A 3.483,3.483 0 0 1 201.871,256.11 17,17 0 0 1 200.364,259.545 C 199.878,260.371 199.864,261.295 200.364,261.538 A 3.921,3.921 0 0 0 203.329,261.668 C 204.836,261.214 205.954,262.122 205.954,263.968 V 267.208 A 2.139,2.139 0 0 1 204.966,268.828 L 190.06,277.428 A 0.6,0.6 0 0 1 189.088,276.877 V 273.637 A 7.7,7.7 0 0 1 191.6,268.311 Z"
       id="path368"
       style="fill:#b5ff76;fill-opacity:1;stroke-width:1.11502" />
    <path
       class="d"
       d="M 167,291.544 161.8,294.544 V 285.228 L 167,282.214 Z M 158.769,296.307 153.584,299.272 V 282.196 L 158.784,279.196 Z M 150.52,276.185 V 301.055 L 145.32,304.133 V 279.182 Z"
       id="path370"
       style="fill:#b5ff76;fill-opacity:1;stroke-width:1.11502" />
    <path
       class="d"
       d="M 231.431,242.859 A 7.6,7.6 0 0 1 231.531,241.385 L 229.084,241.077 A 23.185,23.185 0 0 1 230.184,237.351 L 232.984,236.509 A 19.973,19.973 0 0 1 234.734,233.495 L 234.054,230.676 A 22.3,22.3 0 0 1 236.743,227.922 L 238.25,229.866 A 11.679,11.679 0 0 1 239.481,229.04 9.513,9.513 0 0 1 240.712,228.44 L 242.219,224.746 A 7.5,7.5 0 0 1 244.908,224.487 L 244.228,228.087 A 3.776,3.776 0 0 1 245.978,229.075 L 248.778,226.693 A 7.47,7.47 0 0 1 249.896,229.123 L 247.433,232.363 A 8.764,8.764 0 0 1 247.533,233.708 11.479,11.479 0 0 1 247.433,235.182 L 249.896,235.49 A 22.772,22.772 0 0 1 248.778,239.216 L 245.978,240.058 A 18.7,18.7 0 0 1 244.228,243.072 L 244.908,245.891 A 22.392,22.392 0 0 1 242.219,248.726 L 240.712,246.766 A 11.868,11.868 0 0 1 239.481,247.608 9.337,9.337 0 0 1 238.25,248.191 L 236.743,251.885 A 7.89,7.89 0 0 1 234.053,252.16 L 234.734,248.547 A 3.856,3.856 0 0 1 232.984,247.559 L 230.184,249.941 A 7.31,7.31 0 0 1 229.084,247.511 L 231.531,244.368 A 11.926,11.926 0 0 1 231.431,242.859 Z M 239.531,241.919 A 7.129,7.129 0 0 0 242.771,236.346 C 242.771,234.288 241.313,233.462 239.531,234.499 A 7.161,7.161 0 0 0 236.29,240.072 C 236.241,242.13 237.716,242.956 239.482,241.919 Z"
       id="path372"
       style="fill:#b5ff76;fill-opacity:1;stroke-width:1.11502" />
    <path
       class="d"
       d="M 291.967,200.165 281.63,216.365 271.309,212.153 V 212.153 A 3.939,3.939 0 0 1 272.54,210.953 L 290.753,200.339 A 1.507,1.507 0 0 1 291.984,200.112 Z"
       id="path374"
       style="fill:#b5ff76;fill-opacity:1;stroke-width:1.11502" />
    <path
       class="d"
       d="M 271.274,212.144 281.627,218.058 284.641,212.987 292.029,216.017 V 216.017 L 285.159,212.096 292.029,200.22 A 1.312,1.312 0 0 1 292.807,201.597 V 213.943 A 4.488,4.488 0 0 1 290.782,217.443 L 272.522,227.893 C 271.404,228.541 270.497,228.023 270.497,226.743 V 214.399 A 4.245,4.245 0 0 1 271.275,212.147 Z M 271.274,227.944 278.662,216.376 278.111,216.068 271.241,227.928 Z"
       id="path376"
       style="fill:#b5ff76;fill-opacity:1;stroke-width:1.11502" />
    <path
       class="l"
       d="M 427.334,310.231 V 356.471 L 420.027,352.323 V 305.808 Z"
       id="path378"
       style="fill:#ab7126;fill-opacity:1;stroke-width:1.11502" />
    <path
       class="h"
       d="M 427.116,310.2 V 356.44 L 551.336,284.747 V 238.247 Z"
       id="path380"
       style="fill:#d1923f;fill-opacity:1;stroke-width:1.11502" />
    <path
       class="a"
       d="M 551.336,238.205 427.116,310.158 419.858,305.735 544.126,233.879 Z"
       id="path382"
       style="fill:#e8b572;fill-opacity:1;stroke-width:1.11502" />
    <path
       class="d"
       d="M 439.33,313.565 462.013,300.458 C 463.406,299.648 464.524,300.296 464.524,301.9 V 317.276 A 5.557,5.557 0 0 1 462.013,321.634 L 447.82,329.734 440.72,341.983 V 333.883 L 439.294,334.709 C 437.901,335.503 436.766,334.871 436.766,333.267 V 317.891 A 5.574,5.574 0 0 1 439.326,313.565 Z M 455.338,316.449 C 456.083,316.87 457.282,316.174 458.011,314.829 458.74,313.484 458.756,312.188 458.011,311.767 457.266,311.346 456.083,312.042 455.338,313.387 454.593,314.732 454.609,316.028 455.338,316.449 Z M 449.197,319.997 C 449.926,320.418 451.125,319.722 451.87,318.377 452.615,317.032 452.599,315.72 451.87,315.299 451.141,314.878 449.926,315.574 449.197,316.919 448.468,318.264 448.451,319.576 449.197,319.997 Z M 443.04,323.545 C 443.785,323.966 444.984,323.27 445.713,321.925 446.442,320.58 446.458,319.268 445.713,318.847 444.968,318.426 443.785,319.122 443.04,320.467 442.295,321.812 442.246,323.059 443.04,323.545 Z M 466.452,316.189 V 303.698 L 475.12,298.756 C 476.513,297.946 477.647,298.594 477.647,300.198 V 315.574 A 5.574,5.574 0 0 1 475.12,319.932 L 473.71,320.742 V 328.842 L 466.61,324.792 452.417,332.992 C 451.024,333.786 449.889,333.154 449.889,331.55 V 330.823 L 462.04,323.823 A 9.721,9.721 0 0 0 466.452,316.19 Z"
       id="path386"
       style="fill:#b5ff76;fill-opacity:1;stroke-width:1.11502" />
    <path
       class="d"
       d="M 545.65,255.318 V 259.158 L 486.302,293.425 V 289.585 Z"
       id="path388"
       style="fill:#b5ff76;fill-opacity:1;stroke-width:1.11502" />
    <path
       class="d"
       d="M 486.064,305.749 526.65,282.289 V 286.129 L 486.064,309.589 Z"
       id="path390"
       style="fill:#b5ff76;fill-opacity:1;stroke-width:1.11502" />
    <path
       class="d"
       d="M 545.65,267.156 486.302,301.426 V 297.586 L 545.65,263.316 Z"
       id="path392"
       style="fill:#b5ff76;fill-opacity:1;stroke-width:1.11502" />
    <path
       class="u"
       d="M 264.55,466.999 303.127,445.272 C 299.887,442.825 297.845,439.925 297.845,436.798 297.845,428.162 312.573,421.163 330.735,421.163 348.897,421.163 363.625,428.163 363.625,436.798 363.625,445.433 348.897,452.417 330.735,452.417 A 67.212,67.212 0 0 1 319.944,451.542 L 278.402,474.873 A 11.682,11.682 0 0 1 267.936,474.436 C 264.518,472.816 260.435,469.413 264.55,466.999 Z"
       id="path394"
       style="stroke-width:1.11502" />
    <path
       class="k"
       d="M 264.767,462.838 A 8.83,8.83 0 1 0 276.74,459.238 8.83,8.83 0 0 0 264.767,462.838 Z"
       id="path396"
       style="fill:#8a5b1f;fill-opacity:1;stroke-width:1.11502" />
    <path
       class="m"
       d="M 292.685,407.207 311.803,417.507 283.285,470.103 V 470.103 470.184 C 281.665,473.262 276.01,473.424 270.728,470.605 265.446,467.786 262.514,462.958 264.247,459.879 V 459.879 Z"
       id="path398"
       style="fill:#d1923f;fill-opacity:1;stroke-width:1.11502" />
    <path
       class="l"
       d="M 292.657,407.188 C 291.037,410.266 293.937,415.062 299.138,417.914 304.339,420.766 310.038,420.571 311.694,417.493 313.35,414.415 310.414,409.619 305.132,406.784 299.85,403.949 294.311,404.126 292.657,407.188 Z"
       id="path400"
       style="fill:#ab7126;fill-opacity:1;stroke-width:1.11502" />
    <path
       class="k"
       d="M 305.177,393.199 316.518,399.323 308.418,414.323 V 414.323 C 307.43,416.154 304.076,416.251 300.949,414.566 297.822,412.881 296.088,410.013 297.049,408.199 V 408.199 Z"
       id="path402"
       style="fill:#8a5b1f;fill-opacity:1;stroke-width:1.11502" />
    <path
       class="a"
       d="M 337.193,272.518 C 351.353,264.418 364.185,263.413 373.582,268.5 373.841,268.646 387.321,276.163 387.743,276.812 378.2,269.602 364.043,269.712 348.259,278.837 319.468,295.46 296.137,335.706 296.137,368.737 296.137,385.587 302.213,397.301 311.982,402.537 A 12.07,12.07 0 0 1 309.438,401.419 L 299.717,395.519 C 290.66,389.978 285.135,378.556 285.135,362.419 285.071,329.403 308.418,289.141 337.193,272.518 Z"
       id="path404"
       style="fill:#e19d45;fill-opacity:1;stroke-width:1.11502" />
    <path
       class="c"
       d="M 348.121,278.842 C 376.896,262.219 400.226,275.521 400.226,308.556 400.226,341.591 376.895,381.837 348.121,398.456 319.347,415.075 295.999,401.696 295.999,368.742 295.999,335.788 319.314,295.466 348.121,278.842 Z M 348.899,390.635 C 373.315,376.523 393.13,342.369 393.13,314.34 393.13,286.311 373.315,275.018 348.899,289.13 324.483,303.242 304.732,337.315 304.732,365.344 304.732,393.373 324.466,404.634 348.899,390.57 Z"
       id="path406"
       style="fill:#ffebd1;fill-opacity:1;stroke-width:1.11502" />
    <path
       class="a"
       d="M 339.744,385.452 C 364.16,371.352 383.975,337.203 383.975,309.173 383.975,297.734 380.735,289.083 375.112,283.817 386.032,286.75 393.129,297.508 393.129,314.277 393.129,342.306 373.314,376.46 348.898,390.572 334.43,398.916 321.598,398.365 313.529,390.702 320.852,392.678 329.925,391.122 339.744,385.452 Z"
       id="path408"
       style="fill:#e19d45;fill-opacity:1;stroke-width:1.11502" />
  </g>
</svg>
