<?xml version="1.0" encoding="UTF-8" standalone="no"?>
<svg
   width="235"
   height="180.26521"
   viewBox="0 0 385.60702 443.45332"
   version="1.1"
   id="svg416"
   sodipodi:docname="image-header.svg"
   inkscape:version="1.1 (c68e22c387, 2021-05-23)"
   xmlns:inkscape="http://www.inkscape.org/namespaces/inkscape"
   xmlns:sodipodi="http://sodipodi.sourceforge.net/DTD/sodipodi-0.dtd"
   xmlns="http://www.w3.org/2000/svg"
   xmlns:svg="http://www.w3.org/2000/svg">
  <sodipodi:namedview
     id="namedview418"
     pagecolor="#ffffff"
     bordercolor="#666666"
     borderopacity="1.0"
     inkscape:pageshadow="2"
     inkscape:pageopacity="0.0"
     inkscape:pagecheckerboard="0"
     showgrid="false"
     inkscape:snap-global="true"
     inkscape:zoom="2"
     inkscape:cx="98.75"
     inkscape:cy="113.25"
     inkscape:window-width="1920"
     inkscape:window-height="1017"
     inkscape:window-x="-8"
     inkscape:window-y="-8"
     inkscape:window-maximized="1"
     inkscape:current-layer="svg416"
     width="235px" />
  <defs
     id="defs4">
    <style
       id="style2">.a{fill:#72b5e8;}.b{fill:#a8cff0;}.c{fill:#d1ebff;}.d,.g{fill:#fff;}.e{fill:#eb4680;}.f{fill:#d62d69;}.g{opacity:0.7;}.h{fill:#3f92d1;}.i{fill:#4f9fdb;}.j{fill:#03336e;}.k{fill:#001a46;}.l{fill:#2672ab;}.m{fill:#084c94;}.n{fill:#0fbab8;}.o{fill:#0ba19f;}.p{fill:#fc0;}.q{fill:#ffd70f;}.r{fill:#ffde17;}.s{fill:#3ecfcd;}.t{fill:#f76195;}.u{fill:#e9f0f6;}</style>
  </defs>
  <g
     id="g158589"
     transform="matrix(0.89684149,0,0,0.89684149,-97.081995,5.2253345e-5)"
     style="stroke-width:1.11502">
    <path
       class="a"
       d="M 213.84582,88.744 231.32082,74.298 244.42782,81.832 226.39732,97.1805 Z"
       id="path82"
       style="fill:#ab7126;fill-opacity:1;stroke-width:1.11502"
       sodipodi:nodetypes="ccccc" />
    <path
       class="a"
       d="M 177.70982,286.589 C 190.12082,279.412 200.19782,262.043 200.19782,247.789 200.19782,242.507 198.80482,238.408 196.42282,235.702 203.24382,236.188 207.76382,241.891 207.76382,251.531 207.76382,265.789 197.70282,283.157 185.27582,290.331 177.46682,294.831 170.69382,294.219 166.57582,289.618 A 19.6,19.6 0 0 0 177.70682,286.588 Z"
       id="path6"
       style="fill:#ab7126;fill-opacity:1;stroke-width:1.11502" />
    <path
       class="b"
       d="M 155.83282,281.894 A 42.134,42.134 0 0 1 156.22182,276.434 L 147.11582,275.284 A 82.362,82.362 0 0 1 151.24782,261.512 L 161.60482,258.385 A 73.941,73.941 0 0 1 168.08582,247.254 L 165.60682,236.804 A 82.634,82.634 0 0 1 175.53882,226.338 L 181.11282,233.564 A 42.4,42.4 0 0 1 185.66582,230.486 34.276,34.276 0 0 1 190.23482,228.299 L 195.80482,214.64 A 27.542,27.542 0 0 1 205.73682,213.64 L 203.24182,226.958 A 14.29,14.29 0 0 1 209.72282,230.636 L 220.09182,221.806 A 27.137,27.137 0 0 1 224.20682,230.814 L 215.11782,242.463 A 35.117,35.117 0 0 1 215.50682,247.486 44.645,44.645 0 0 1 215.11782,252.93 L 224.20682,254.08 A 81.377,81.377 0 0 1 220.09182,267.852 L 209.72282,270.995 A 71.111,71.111 0 0 1 203.24182,282.11 L 205.73682,292.576 A 83.492,83.492 0 0 1 195.80482,303.026 L 190.23182,295.816 A 48.006,48.006 0 0 1 185.66282,298.894 36.254,36.254 0 0 1 181.10982,301.081 L 175.53582,314.739 A 27.544,27.544 0 0 1 165.60382,315.727 L 168.04982,302.49 A 14.306,14.306 0 0 1 161.56882,298.812 L 151.21582,307.642 A 26.844,26.844 0 0 1 147.08482,298.634 L 156.18982,286.985 A 32.534,32.534 0 0 1 155.83282,281.894 Z M 185.35282,290.335 C 197.77982,283.158 207.84082,265.789 207.84082,251.535 207.84082,237.281 197.77882,231.542 185.35282,238.703 172.92682,245.864 162.85282,263.249 162.85282,277.588 162.85282,291.927 172.92582,297.512 185.35282,290.335 Z"
       id="path8"
       style="fill:#f0d1a8;fill-opacity:1;stroke-width:1.11502" />
    <path
       class="a"
       d="M 181.47982,223.216 187.04982,209.574 195.76682,214.564 190.19382,228.222 Z"
       id="path10"
       style="fill:#ab7126;fill-opacity:1;stroke-width:1.11502" />
    <path
       class="c"
       d="M 190.19682,228.25 A 34.271,34.271 0 0 0 185.62782,230.437 42.412,42.412 0 0 0 181.07582,233.515 L 175.50282,226.289 V 226.289 L 176.91182,225.43 A 34.262,34.262 0 0 1 181.48082,223.243 Z"
       id="path12"
       style="fill:#e9bc80;fill-opacity:1;stroke-width:1.11502" />
    <path
       class="c"
       d="M 186.97182,209.566 A 27.542,27.542 0 0 1 196.90382,208.566 L 205.62082,213.572 A 27.544,27.544 0 0 0 195.68882,214.572 Z"
       id="path14"
       style="fill:#e9bc80;fill-opacity:1;stroke-width:1.11502" />
    <path
       class="c"
       d="M 156.85382,231.75 A 82.631,82.631 0 0 1 166.78582,221.284 L 175.50182,226.29 A 82.625,82.625 0 0 0 165.56982,236.756 Z"
       id="path16"
       style="fill:#e9bc80;fill-opacity:1;stroke-width:1.11502" />
    <path
       class="a"
       d="M 165.56982,236.769 168.06982,247.219 159.35282,242.213 156.87382,231.763 Z"
       id="path18"
       style="fill:#ab7126;fill-opacity:1;stroke-width:1.11502" />
    <path
       class="a"
       d="M 168.04882,247.232 A 73.932,73.932 0 0 0 161.56782,258.363 L 152.85082,253.357 A 73.937,73.937 0 0 1 159.33182,242.226 Z"
       id="path20"
       style="fill:#ab7126;fill-opacity:1;stroke-width:1.11502" />
    <path
       class="c"
       d="M 161.61682,258.371 151.24782,261.498 142.53082,256.492 152.89982,253.365 Z"
       id="path22"
       style="fill:#e9bc80;fill-opacity:1;stroke-width:1.11502" />
    <path
       class="a"
       d="M 151.24782,261.508 A 82.362,82.362 0 0 0 147.11682,275.28 L 138.39982,270.274 A 82.349,82.349 0 0 1 142.53082,256.502 Z"
       id="path24"
       style="fill:#ab7126;fill-opacity:1;stroke-width:1.11502" />
    <path
       class="a"
       d="M 203.05182,226.9 203.78082,223.028 211.15182,216.741 219.86882,221.747 209.49982,230.577 A 14.29,14.29 0 0 0 203.05182,226.899 Z"
       id="path26"
       style="stroke-width:1.11502" />
    <path
       class="a"
       d="M 147.11682,298.586 A 26.849,26.849 0 0 0 151.24782,307.594 L 142.53082,302.588 A 26.853,26.853 0 0 1 138.39982,293.58 Z"
       id="path28"
       style="fill:#ab7126;fill-opacity:1;stroke-width:1.11502" />
    <path
       class="a"
       d="M 147.50482,281.908 A 34.707,34.707 0 0 1 147.11582,276.902 C 147.11582,276.367 147.11582,275.833 147.11582,275.282 L 156.15682,276.416 A 42.1,42.1 0 0 0 155.76782,281.876 32.5,32.5 0 0 0 156.15682,286.882 Z"
       id="path30"
       style="fill:#ab7126;fill-opacity:1;stroke-width:1.11502" />
    <path
       class="c"
       d="M 156.22182,286.925 147.13282,298.574 138.41582,293.568 147.50482,281.919 Z"
       id="path32"
       style="fill:#e9bc80;fill-opacity:1;stroke-width:1.11502" />
    <path
       class="a"
       d="M 161.59982,298.773 A 14.307,14.307 0 0 0 168.08082,302.451 L 165.60182,315.769 156.88482,310.763 158.65082,301.317 Z"
       id="path34"
       style="fill:#ab7126;fill-opacity:1;stroke-width:1.11502" />
    <path
       class="c"
       d="M 215.20782,249 223.97282,254.136 214.88382,252.986 C 215.06182,251.56 215.15882,250.231 215.20782,249 Z"
       id="path36"
       style="stroke-width:1.11502" />
    <path
       class="a"
       d="M 190.19682,295.846 195.76982,303.056 186.98882,298.066 C 188.07382,297.366 189.14382,296.64 190.19682,295.846 Z"
       id="path38"
       style="fill:#ab7126;fill-opacity:1;stroke-width:1.11502" />
    <path
       class="a"
       d="M 180.92982,179.43 C 199.62982,168.64 214.77582,142.506 214.77582,121.103 214.77582,113.148 212.51357,106.77003 208.93257,102.68703 219.53232,103.43203 226.27882,112.24 226.27882,126.741 226.27882,148.176 211.12982,174.31 192.43282,185.068 180.70282,191.857 170.38182,190.917 164.32282,183.999 170.1902,184.16566 175.97344,182.57455 180.92982,179.43 Z"
       id="path62"
       sodipodi:nodetypes="cscsccc"
       style="fill:#ab7126;fill-opacity:1;stroke-width:1.11502" />
    <path
       class="b"
       d="M 148.03882,172.207 C 148.05844,169.46404 148.25417,166.91914 148.62282,164.201 L 135.01282,162.484 C 136.47013,155.41344 138.46646,148.43875 141.13782,141.732 L 156.72382,136.99 C 159.46484,131.13556 162.70183,125.49978 166.42882,120.218 L 162.68082,104.483 C 167.19265,98.814106 172.19097,93.550104 177.61882,88.751 L 186.01782,99.527 C 190.38532,96.307957 194.9261,93.42563 199.60882,91.586 L 207.97282,71.042 C 212.81943,69.637273 217.88129,69.126614 222.91082,69.535 L 219.13482,89.577 C 222.80683,90.535082 226.1394,92.446627 228.83482,95.118 L 244.42782,81.832 C 247.31386,85.924317 249.65693,90.515232 250.87282,95.373 L 237.18182,112.904 C 237.5657,115.39706 237.76059,117.91556 237.76482,120.438 237.74532,123.18096 237.55059,125.91987 237.18182,128.638 L 250.80782,130.438 C 249.35005,137.50856 247.27339,144.43724 244.60182,151.144 L 229.01582,155.859 C 226.27485,161.71347 223.02186,167.31425 219.29482,172.596 L 223.03782,188.328 C 218.53942,193.96789 213.56335,199.20962 208.16482,203.995 L 199.77182,193.14 C 197.58382,194.82256 195.29524,196.3701 192.91882,197.774 190.7155,199.01763 188.4252,200.10045 186.06582,201.014 L 177.67282,221.558 C 172.82607,222.96202 167.73134,223.75967 162.70182,223.352 L 166.44482,203.31 C 162.77283,202.35187 159.41927,200.44034 156.72382,197.769 L 141.13782,211.043 C 138.25169,206.9494 136.16394,202.3381 134.94882,197.479 L 148.62282,179.948 C 148.23053,177.47192 148.05762,174.7149 148.03982,172.208 Z M 192.43182,184.907 C 211.13182,174.117 226.27782,147.983 226.27782,126.58 226.27782,105.177 211.12882,96.493 192.43182,107.28 173.73482,118.067 158.58582,144.204 158.58582,165.607 158.58582,187.01 173.75082,195.707 192.43182,184.907 Z"
       id="path64"
       sodipodi:nodetypes="ccccccccccccccccccccccccccccccccccccccsssc"
       style="fill:#f0d1a8;fill-opacity:1;stroke-width:1.11502" />
    <path
       class="a"
       d="M 186.48482,84.052 194.87782,63.508 207.98482,71.042 199.60882,91.586 Z"
       id="path66"
       style="fill:#ab7126;fill-opacity:1;stroke-width:1.11502" />
    <path
       class="c"
       d="M 194.86482,63.508 A 41.883,41.883 0 0 1 209.78682,62.001 L 222.91082,69.535 A 41.574,41.574 0 0 0 207.97282,71.042 Z"
       id="path70"
       style="fill:#e9bc80;fill-opacity:1;stroke-width:1.11502" />
    <path
       class="c"
       d="M 149.57382,96.949 C 154.08533,91.279834 159.08368,86.015807 164.51182,81.217 L 177.61882,88.751 C 179.4184,87.539327 184.06185,84.97434 186.51141,84.016638 187.98671,84.936823 195.80493,89.462818 199.60882,91.586 196.0527,93.118182 186.01782,99.527 186.01782,99.527 L 177.61882,88.751 C 177.61882,88.751 163.35644,103.6341 162.68082,104.483 Z"
       id="path72"
       style="fill:#e9bc80;fill-opacity:1;stroke-width:1.11502"
       sodipodi:nodetypes="ccccccccc" />
    <path
       class="a"
       d="M 166.42882,120.218 C 162.7018,125.49976 159.46281,131.06255 156.72182,136.917 L 143.61682,129.472 C 146.35772,123.61749 149.59171,117.9817 153.31882,112.7 L 149.57882,96.968 162.70282,104.502 Z"
       id="path76"
       sodipodi:nodetypes="ccccccc"
       style="fill:#ab7126;fill-opacity:1;stroke-width:1.11502" />
    <path
       class="c"
       d="M 156.72382,136.99 141.13782,141.705 128.03082,134.187 143.61682,129.472 Z"
       id="path78"
       style="fill:#e9bc80;fill-opacity:1;stroke-width:1.11502" />
    <path
       class="a"
       d="M 141.13782,141.732 C 138.46613,148.43872 136.47047,155.41341 135.01282,162.484 L 121.82482,154.904 C 123.28211,147.83343 125.35844,140.90474 128.02982,134.198 Z"
       id="path80"
       sodipodi:nodetypes="ccccc"
       style="fill:#ab7126;fill-opacity:1;stroke-width:1.11502" />
    <path
       class="a"
       d="M 134.93282,197.498 A 40.6,40.6 0 0 0 141.13782,211.043 L 128.03082,203.525 A 40.7,40.7 0 0 1 121.82582,189.964 Z"
       id="path84"
       style="fill:#ab7126;fill-opacity:1;stroke-width:1.11502" />
    <path
       class="a"
       d="M 135.49882,172.4 A 52.348,52.348 0 0 1 134.93182,164.866 23.259,23.259 0 0 1 135.01282,162.484 L 148.62282,164.201 A 64.488,64.488 0 0 0 148.03982,172.401 50.056,50.056 0 0 0 148.62282,179.935 Z"
       id="path86"
       style="fill:#ab7126;fill-opacity:1;stroke-width:1.11502" />
    <path
       class="c"
       d="M 148.62282,179.948 134.94882,197.479 121.82482,189.945 135.51582,172.415 Z"
       id="path88"
       style="fill:#e9bc80;fill-opacity:1;stroke-width:1.11502" />
    <path
       class="a"
       d="M 156.72382,197.769 A 21.531,21.531 0 0 0 166.44482,203.31 L 162.70182,223.352 149.59482,215.818 152.25182,201.609 Z"
       id="path90"
       style="fill:#ab7126;fill-opacity:1;stroke-width:1.11502" />
    <path
       class="c"
       d="M 237.70107,122.772 250.80782,130.438 237.18182,128.638 C 237.39282,126.549 237.60407,124.765 237.70107,122.772 Z"
       id="path92"
       sodipodi:nodetypes="cccc"
       style="fill:#e9bc80;fill-opacity:1;stroke-width:1.11502" />
    <path
       class="a"
       d="M 199.77182,193.14 208.02382,204.00003 194.76913,196.6405 C 196.33613,195.6035 198.19982,194.34 199.77182,193.14 Z"
       id="path94"
       sodipodi:nodetypes="cccc"
       style="fill:#ab7126;fill-opacity:1;stroke-width:1.11502" />
    <path
       class="e"
       d="M 175.92282,62.001 C 175.82282,59.83 174.30282,58.89 172.60182,59.895 A 6.756,6.756 0 0 0 169.65282,65.63 C 169.75282,67.801 171.27282,68.741 172.89282,67.736 A 6.772,6.772 0 0 0 175.92282,62.001 Z"
       id="path118"
       style="fill:#b5ff76;fill-opacity:1;stroke-width:1.11502" />
    <path
       class="e"
       d="M 185.62782,321.667 C 185.62782,320.225 184.55882,319.593 183.40782,320.257 A 4.52,4.52 0 0 0 181.44782,324.064 C 181.44782,325.506 182.50082,326.138 183.66782,325.474 A 4.52,4.52 0 0 0 185.62782,321.667 Z"
       id="path120"
       style="fill:#b5ff76;fill-opacity:1;stroke-width:1.11502" />
    <path
       class="e"
       d="M 122.29482,216.697 A 0.827,0.827 0 0 0 122.92682,216.389 0.81,0.81 0 0 0 122.92682,215.482 L 119.03882,208.823 A 0.81,0.81 0 1 0 117.64582,209.633 L 120.48082,214.494 114.74582,212.744 A 0.778,0.778 0 0 0 113.74582,213.279 0.794,0.794 0 0 0 114.28082,214.279 L 121.99282,216.661 Z"
       id="path122"
       style="fill:#b5ff76;fill-opacity:1;stroke-width:1.11502" />
    <path
       class="f"
       d="M 189.53282,246.115 A 18.616,18.616 0 0 0 182.30682,254.832 17.83,17.83 0 0 1 179.92482,254.022 6.48,6.48 0 0 0 174.35182,254.881 18.875,18.875 0 0 0 165.79682,269.657 C 165.79682,279.589 182.77682,283.024 182.77682,283.024 182.77682,283.024 198.97682,261.424 198.97682,251.495 198.97682,248.789 200.12682,247.963 198.58782,247.072 198.45782,246.991 195.34682,245.355 195.23382,245.306 A 6.3,6.3 0 0 0 189.53382,246.116 Z"
       id="path124"
       style="fill:#e31960;fill-opacity:1;stroke-width:1.11502" />
    <path
       class="e"
       d="M 192.39982,247.656 A 18.924,18.924 0 0 0 184.79982,257.377 C 183.37382,255.06 180.52282,254.577 177.21782,256.47 A 18.891,18.891 0 0 0 168.64682,271.246 C 168.64682,281.178 184.84682,284.11 184.84682,284.11 184.84682,284.11 201.04682,262.529 201.04682,252.597 200.97082,247.122 197.13082,244.935 192.39982,247.656 Z"
       id="path126"
       style="fill:#eb4680;fill-opacity:1;stroke-width:1.11502" />
    <path
       class="e"
       d="M 119.79982,215.353 120.88482,214.153 C 112.16782,206.23 107.55082,193.333 107.55082,176.889 107.55082,135.833 136.71382,85.624 172.43982,64.966 L 171.62982,63.573 C 135.40282,84.425 105.92982,135.299 105.92982,176.824 105.93082,193.804 110.72682,207.122 119.79982,215.353 Z"
       id="path134"
       style="fill:#b5ff76;fill-opacity:1;stroke-width:1.11502" />
    <path
       class="b"
       d="M 94.086816,187.908 V 187.908 A 0.81,0.81 0 0 0 94.880816,187.098 V 185.478 A 0.81,0.81 0 1 0 93.260816,185.478 V 187.098 A 0.81,0.81 0 0 0 94.086816,187.908 Z"
       id="path136"
       style="fill:#e31960;fill-opacity:1;stroke-width:1.11502" />
    <path
       class="b"
       d="M 138.67482,244.101 A 0.794,0.794 0 0 0 139.48482,243.307 0.81,0.81 0 0 0 138.69082,242.481 27.5,27.5 0 0 1 135.45082,242.351 0.813,0.813 0 0 0 135.32082,243.971 C 136.40682,244.052 137.50782,244.101 138.56082,244.101 Z M 143.53582,243.923 V 243.923 C 144.60482,243.842 145.69082,243.712 146.77582,243.567 A 0.818,0.818 0 1 0 146.54882,241.947 C 145.47982,242.093 144.44282,242.206 143.30882,242.303 A 0.808,0.808 0 1 0 143.50282,243.903 Z M 130.71982,243.356 A 0.794,0.794 0 0 0 131.51382,242.692 0.81,0.81 0 0 0 130.86582,241.752 C 129.82882,241.558 128.79182,241.331 127.78782,241.071 A 0.814,0.814 0 0 0 127.36582,242.643 C 128.41882,242.918 129.48882,243.143 130.60682,243.356 Z M 122.99182,241.169 A 0.816,0.816 0 0 0 123.29982,239.597 C 122.32782,239.224 121.35582,238.787 120.41582,238.333 A 0.812,0.812 0 1 0 119.70282,239.791 C 120.67482,240.261 121.67882,240.715 122.70282,241.103 A 0.631,0.631 0 0 0 122.96182,241.152 Z M 115.81482,237.459 A 0.81,0.81 0 0 0 116.26882,235.968 C 115.39382,235.385 114.53482,234.768 113.70882,234.121 A 0.814,0.814 0 0 0 112.70882,235.401 C 113.56782,236.065 114.45882,236.713 115.38182,237.329 A 0.858,0.858 0 0 0 115.81882,237.459 Z M 109.60982,232.372 A 0.875,0.875 0 0 0 110.17682,232.145 0.81,0.81 0 0 0 110.17682,230.995 C 109.43182,230.25 108.71882,229.472 108.03782,228.678 A 0.81,0.81 0 1 0 106.80682,229.731 C 107.51982,230.557 108.26482,231.351 109.02682,232.145 A 0.875,0.875 0 0 0 109.64282,232.372 Z M 104.48982,226.183 A 0.744,0.744 0 0 0 104.94382,226.053 0.826,0.826 0 0 0 105.17082,224.919 C 104.57082,224.06 104.00382,223.153 103.47082,222.262 A 0.81,0.81 0 1 0 102.07782,223.072 Q 102.90382,224.482 103.82782,225.843 A 0.794,0.794 0 0 0 104.47582,226.183 Z M 100.52082,219.216 A 0.875,0.875 0 0 0 100.86082,219.216 0.81,0.81 0 0 0 101.24982,218.13 C 100.81282,217.19 100.39082,216.23 99.985816,215.23 A 0.81401858,0.81401858 0 1 0 98.478816,215.846 C 98.899816,216.867 99.320816,217.855 99.790816,218.827 A 0.794,0.794 0 0 0 100.55182,219.216 Z M 97.604816,211.731 A 0.647,0.647 0 0 0 97.847816,211.731 0.794,0.794 0 0 0 98.382816,210.731 C 98.058816,209.731 97.766816,208.706 97.491816,207.669 A 0.837,0.837 0 1 0 95.871816,208.09 C 96.146816,209.143 96.454816,210.196 96.762816,211.217 A 0.826,0.826 0 0 0 97.637816,211.703 Z M 95.643816,203.938 H 95.789816 A 0.81,0.81 0 0 0 96.437816,202.982 C 96.243816,201.961 96.048816,200.908 95.886816,199.855 A 0.794,0.794 0 0 0 94.962816,199.175 0.81,0.81 0 0 0 94.282816,200.098 C 94.460816,201.184 94.638816,202.253 94.849816,203.338 A 0.794,0.794 0 0 0 95.676816,203.938 Z M 94.493816,195.983 V 195.983 A 0.826,0.826 0 0 0 95.222816,195.092 C 95.122816,194.039 95.044816,192.986 94.963816,191.852 A 0.762,0.762 0 0 0 94.104816,191.091 0.794,0.794 0 0 0 93.359816,191.95 C 93.359816,193.036 93.505816,194.121 93.602816,195.19 A 0.843,0.843 0 0 0 94.526816,195.984 Z"
       id="path138"
       style="fill:#e31960;fill-opacity:1;stroke-width:1.11502" />
    <path
       class="b"
       d="M 151.45882,242.686 H 151.63682 L 153.25682,242.313 A 0.826,0.826 0 0 0 153.83982,241.325 0.81,0.81 0 0 0 152.86782,240.742 L 151.24782,241.098 A 0.815,0.815 0 1 0 151.42582,242.718 Z"
       id="path140"
       style="fill:#e31960;fill-opacity:1;stroke-width:1.11502" />
    <path
       class="b"
       d="M 255.06182,114.364 A 0.826,0.826 0 0 0 255.85582,113.7 C 255.95582,113.165 256.04982,112.631 256.13082,112.08 A 0.812,0.812 0 1 0 254.53082,111.821 10.3,10.3 0 0 1 254.25582,113.441 0.81,0.81 0 0 0 254.91982,114.397 Z"
       id="path142"
       style="fill:#e31960;fill-opacity:1;stroke-width:1.11502" />
    <path
       class="b"
       d="M 105.90982,130.633 A 0.826,0.826 0 0 0 106.65482,130.133 Q 107.25482,128.626 107.91882,127.119 A 0.826,0.826 0 0 0 107.48182,126.05 0.794,0.794 0 0 0 106.42882,126.471 C 105.99082,127.492 105.56982,128.512 105.14882,129.517 A 0.826,0.826 0 0 0 105.60282,130.586 1.021,1.021 0 0 0 105.90982,130.633 Z M 109.14982,123.099 A 0.826,0.826 0 0 0 109.89482,122.613 C 110.34782,121.625 110.80182,120.636 111.27182,119.648 A 0.794,0.794 0 0 0 110.89882,118.579 0.81,0.81 0 0 0 109.81282,118.952 C 109.34282,119.952 108.87282,120.945 108.41982,121.952 A 0.794,0.794 0 0 0 108.82482,123.021 0.745,0.745 0 0 0 109.14882,123.102 Z M 112.73082,115.699 A 0.81,0.81 0 0 0 113.44382,115.262 L 114.95082,112.362 A 0.81,0.81 0 0 0 114.61082,111.262 0.794,0.794 0 0 0 113.52482,111.602 C 113.00682,112.574 112.50382,113.546 112.00182,114.535 A 0.81,0.81 0 0 0 112.35782,115.621 0.745,0.745 0 0 0 112.73082,115.702 Z M 116.58682,108.457 A 0.81,0.81 0 0 0 117.29982,108.057 C 117.83482,107.101 118.36882,106.157 118.91982,105.222 A 0.81,0.81 0 1 0 117.52682,104.396 C 116.97582,105.352 116.42682,106.308 115.90682,107.264 A 0.81,0.81 0 0 0 116.21482,108.364 0.859,0.859 0 0 0 116.58782,108.464 Z M 256.27982,107.757 A 0.826,0.826 0 0 0 257.08982,107.057 C 257.21982,105.957 257.36482,104.87 257.47882,103.817 A 0.815,0.815 0 1 0 255.85882,103.639 C 255.74582,104.708 255.61582,105.794 255.46982,106.879 A 0.826,0.826 0 0 0 256.16982,107.786 Z M 120.75082,101.438 A 0.81,0.81 0 0 0 121.45082,101.049 C 122.01782,100.125 122.60082,99.202 123.18482,98.278 A 0.81,0.81 0 1 0 121.82382,97.419 C 121.22382,98.343 120.64082,99.266 120.07382,100.206 A 0.793,0.793 0 0 0 120.33282,101.324 0.778,0.778 0 0 0 120.67282,101.389 Z M 257.10982,99.606 A 0.81,0.81 0 0 0 257.90382,98.844 C 257.90382,97.744 258.04982,96.644 258.08182,95.604 A 0.826,0.826 0 0 0 257.30482,94.762 V 94.762 A 0.826,0.826 0 0 0 256.49482,95.556 C 256.49482,96.625 256.39482,97.711 256.33282,98.796 A 0.81,0.81 0 0 0 257.07782,99.671 Z M 125.20982,94.551 A 0.81,0.81 0 0 0 125.87382,94.194 L 127.72082,91.505 A 0.814,0.814 0 0 0 126.39182,90.565 L 124.52882,93.287 A 0.81,0.81 0 0 0 124.75582,94.405 0.762,0.762 0 0 0 125.20982,94.505 Z M 257.36982,91.408 V 91.408 A 0.826,0.826 0 0 0 258.17982,90.598 V 87.358 A 0.826,0.826 0 0 0 257.36982,86.564 V 86.564 A 0.81,0.81 0 0 0 256.59182,87.407 V 90.647 A 0.81,0.81 0 0 0 257.36982,91.36 Z M 129.92582,87.844 A 0.826,0.826 0 0 0 130.57382,87.52 L 132.53482,84.911 A 0.81,0.81 0 1 0 131.25482,83.923 C 130.59082,84.798 129.92582,85.673 129.27782,86.564 A 0.81,0.81 0 0 0 129.43982,87.698 0.891,0.891 0 0 0 129.92582,87.798 Z M 256.99782,83.21 H 257.07882 A 0.794,0.794 0 0 0 257.80782,82.335 C 257.70782,81.217 257.59682,80.115 257.46782,79.095 A 0.81,0.81 0 0 0 256.57682,78.382 0.826,0.826 0 0 0 255.86382,79.289 C 255.99282,80.342 256.10682,81.428 256.20382,82.529 A 0.794,0.794 0 0 0 256.99782,83.161 Z M 134.93282,81.363 A 0.778,0.778 0 0 0 135.56482,81.055 C 136.24582,80.213 136.94182,79.435 137.63882,78.544 A 0.826,0.826 0 0 0 137.52582,77.394 0.81,0.81 0 0 0 136.39182,77.507 C 135.69182,78.333 134.99882,79.127 134.30182,80.051 A 0.81,0.81 0 0 0 134.43182,81.185 0.827,0.827 0 0 0 134.93182,81.315 Z M 140.21482,75.109 A 0.778,0.778 0 0 0 140.81482,74.834 L 143.00182,72.404 A 0.826,0.826 0 0 0 143.00182,71.254 0.81,0.81 0 0 0 141.85182,71.254 C 141.10682,72.048 140.37782,72.874 139.65182,73.684 A 0.826,0.826 0 0 0 140.26782,75.045 Z M 255.92882,75.109 H 256.07482 A 0.81,0.81 0 0 0 256.72282,74.169 C 256.52882,73.069 256.30182,71.982 256.05882,70.929 A 0.83119327,0.83119327 0 1 0 254.43882,71.302 C 254.66582,72.339 254.89282,73.392 255.08682,74.542 A 0.794,0.794 0 0 0 255.92882,75.042 Z M 145.75582,69.098 A 0.826,0.826 0 0 0 146.33882,68.855 C 147.10082,68.077 147.86182,67.235 148.63882,66.538 A 0.81,0.81 0 0 0 148.63882,65.388 0.826,0.826 0 0 0 147.48882,65.388 C 146.71082,66.166 145.86882,67.008 145.17182,67.737 A 0.778,0.778 0 0 0 145.17182,68.871 0.729,0.729 0 0 0 145.77182,69.033 Z M 254.00082,67.138 H 254.22782 A 0.81,0.81 0 0 0 254.77882,66.117 C 254.43882,65.048 254.09782,63.995 253.72582,62.974 A 0.81,0.81 0 1 0 252.20282,63.525 C 252.55982,64.525 252.90282,65.55 253.22382,66.603 A 0.81,0.81 0 0 0 254.01782,67.073 Z M 151.62082,63.363 A 0.811,0.811 0 0 0 152.17182,63.152 C 152.96582,62.407 153.79182,61.661 154.58582,60.952 A 0.81,0.81 0 0 0 154.58582,59.802 0.826,0.826 0 0 0 153.43582,59.802 L 151.00582,62.022 A 0.826,0.826 0 0 0 151.00582,63.172 0.81,0.81 0 0 0 151.63782,63.302 Z M 251.10082,59.475 A 0.875,0.875 0 0 0 251.44082,59.475 0.81,0.81 0 0 0 251.84582,58.406 C 251.37582,57.385 250.87382,56.397 250.35482,55.425 A 0.8081765,0.8081765 0 0 0 248.92882,56.186 C 249.42882,57.126 249.91682,58.098 250.37082,59.086 A 0.794,0.794 0 0 0 251.11582,59.41 Z M 157.77782,57.855 A 0.907,0.907 0 0 0 158.29682,57.677 C 159.12282,56.964 159.91682,56.284 160.82382,55.603 A 0.807,0.807 0 1 0 159.82382,54.339 C 158.96482,55.019 158.10682,55.716 157.26382,56.429 A 0.817,0.817 0 0 0 157.79882,57.871 Z M 164.25882,52.784 A 0.746,0.746 0 0 0 164.72882,52.622 C 165.61982,51.974 166.49482,51.342 167.38582,50.722 A 0.826,0.826 0 0 0 167.58082,49.588 0.81,0.81 0 0 0 166.44682,49.394 C 165.55582,50.026 164.66482,50.658 163.77382,51.322 A 0.81,0.81 0 0 0 164.25982,52.78 Z M 247.05082,52.266 A 0.81,0.81 0 0 0 247.71482,51.002 C 247.09882,50.062 246.43482,49.155 245.75382,48.296 A 0.807,0.807 0 1 0 244.48982,49.296 25.66,25.66 0 0 1 246.36882,51.905 0.842,0.842 0 0 0 247.04882,52.264 Z M 170.90182,48.151 A 0.86,0.86 0 0 0 171.33982,48.021 C 172.26282,47.421 173.18682,46.854 174.10982,46.287 A 0.80701502,0.80701502 0 1 0 173.26782,44.91 L 170.46782,46.644 A 0.826,0.826 0 0 0 170.22482,47.778 0.859,0.859 0 0 0 170.89982,48.149 Z M 241.88082,45.913 A 0.843,0.843 0 0 0 242.44782,45.686 0.81,0.81 0 0 0 242.44782,44.536 31.846,31.846 0 0 0 240.01782,42.252 0.81,0.81 0 1 0 238.96482,43.483 C 239.75882,44.183 240.58482,44.909 241.29782,45.67 A 0.826,0.826 0 0 0 241.96182,45.913 Z M 177.94782,43.953 A 0.811,0.811 0 0 0 178.33682,43.853 C 179.30882,43.318 180.26482,42.816 181.22082,42.33 A 0.794,0.794 0 0 0 181.57682,41.245 0.81,0.81 0 0 0 180.49182,40.889 L 177.55882,42.509 A 0.826,0.826 0 0 0 177.23482,43.609 0.81,0.81 0 0 0 178.02882,43.949 Z M 235.56182,40.713 A 0.826,0.826 0 0 0 236.24182,40.34 0.81,0.81 0 0 0 236.01482,39.222 C 235.09082,38.606 234.11482,38.022 233.14682,37.505 A 0.80519935,0.80519935 0 1 0 232.36882,38.915 C 233.30882,39.433 234.23182,39.984 235.12282,40.535 A 0.859,0.859 0 0 0 235.70582,40.713 Z M 185.33582,40.324 A 0.73,0.73 0 0 0 185.65982,40.324 C 186.65982,39.87 187.66882,39.449 188.65982,39.06 A 0.81102543,0.81102543 0 0 0 188.05982,37.553 C 187.05982,37.958 186.03482,38.379 185.01382,38.833 A 0.82604116,0.82604116 0 0 0 185.33782,40.453 Z M 192.98282,37.375 A 0.729,0.729 0 0 0 193.24182,37.375 C 194.27882,37.035 195.31582,36.711 196.33582,36.419 A 0.81,0.81 0 0 0 196.90282,35.431 0.826,0.826 0 0 0 195.90282,34.864 C 194.84982,35.156 193.79682,35.48 192.66282,35.836 A 0.794,0.794 0 0 0 193.03582,37.375 Z M 228.33482,36.938 A 0.826,0.826 0 0 0 229.09682,36.42 0.81,0.81 0 0 0 228.62682,35.383 C 227.60582,34.978 226.55282,34.605 225.46682,34.283 A 0.826,0.826 0 0 0 224.46682,34.834 0.81,0.81 0 0 0 225.01782,35.834 C 226.03882,36.142 227.05982,36.498 228.04782,36.887 A 0.922,0.922 0 0 0 228.38782,36.936 Z M 200.88882,35.238 H 201.06682 C 202.13582,35.027 203.18982,34.833 204.30682,34.671 A 0.778,0.778 0 0 0 204.98682,33.764 0.794,0.794 0 0 0 204.07982,33.084 C 202.99382,33.246 201.89182,33.44 200.83882,33.651 A 0.794,0.794 0 0 0 200.20682,34.607 0.778,0.778 0 0 0 200.93582,35.239 Z M 220.46082,34.738 A 0.81328285,0.81328285 0 1 0 220.60682,33.118 C 219.52082,32.924 218.40682,32.778 217.36682,32.664 A 0.815,0.815 0 1 0 217.18882,34.284 C 218.25782,34.397 219.34382,34.543 220.42882,34.721 Z M 209.02282,34.155 V 34.155 C 210.10882,34.155 211.19382,34.055 212.26282,34.055 A 0.81,0.81 0 0 0 212.26282,32.435 32.816,32.816 0 0 0 208.94182,32.548 0.794,0.794 0 0 0 208.18082,33.407 0.826,0.826 0 0 0 209.07182,34.152 Z"
       id="path144"
       style="fill:#e31960;fill-opacity:1;stroke-width:1.11502" />
    <path
       class="b"
       d="M 103.51582,137.072 A 0.777,0.777 0 0 0 104.27682,136.537 L 104.84382,135.03 A 0.843,0.843 0 0 0 104.35782,133.977 0.826,0.826 0 0 0 103.32082,134.463 L 102.75382,135.986 A 0.81,0.81 0 0 0 103.23982,137.023 Z"
       id="path146"
       style="fill:#e31960;fill-opacity:1;stroke-width:1.11502" />
    <path
       class="e"
       d="M 132.90282,257.997 A 0.81,0.81 0 0 0 133.64782,257.497 C 133.85882,256.997 134.04782,256.497 134.26382,256.006 A 0.81,0.81 0 0 0 133.82582,254.937 0.826,0.826 0 0 0 132.77282,255.374 L 132.14082,256.881 A 0.827,0.827 0 0 0 132.59482,257.934 0.7,0.7 0 0 0 132.90282,257.997 Z"
       id="path148"
       style="fill:#b5ff76;fill-opacity:1;stroke-width:1.11502" />
    <path
       class="e"
       d="M 155.26482,333.474 V 333.474 A 21.51,21.51 0 0 0 158.50482,333.312 0.794,0.794 0 0 0 159.23382,332.437 0.843,0.843 0 0 0 158.35882,331.692 29.346,29.346 0 0 1 155.23182,331.854 0.81015801,0.81015801 0 1 0 155.26382,333.474 Z M 150.40382,333.134 A 0.812,0.812 0 1 0 150.51682,331.514 30.814,30.814 0 0 1 147.47082,330.882 0.81,0.81 0 0 0 146.48282,331.449 0.794,0.794 0 0 0 147.04982,332.437 27.129,27.129 0 0 0 150.28982,333.117 Z M 163.15482,332.567 H 163.31682 C 164.35382,332.34 165.42282,332.081 166.55782,331.773 A 0.826,0.826 0 0 0 167.10882,330.773 0.81,0.81 0 0 0 166.10882,330.222 C 165.07182,330.514 164.05082,330.773 163.04682,330.984 A 0.815,0.815 0 0 0 163.22482,332.604 Z M 142.74082,330.833 A 0.82932744,0.82932744 0 1 0 143.09682,329.213 24.631,24.631 0 0 1 140.37482,327.722 0.81,0.81 0 0 0 139.49982,329.083 26.744,26.744 0 0 0 142.39982,330.703 0.842,0.842 0 0 0 142.80482,330.832 Z M 170.89982,330.217 H 171.19182 C 172.17982,329.828 173.18482,329.407 174.19182,328.953 A 0.842,0.842 0 0 0 174.59182,327.867 0.81,0.81 0 0 0 173.50682,327.478 C 172.53482,327.915 171.56282,328.337 170.60682,328.709 A 0.81,0.81 0 0 0 170.13682,329.762 0.826,0.826 0 0 0 170.89782,330.216 Z M 136.21182,326.361 A 0.794,0.794 0 0 0 136.81182,326.102 0.81,0.81 0 0 0 136.81182,324.952 25.387,25.387 0 0 1 134.67282,322.716 0.826,0.826 0 0 0 133.52282,322.616 0.794,0.794 0 0 0 133.52282,323.75 26.638,26.638 0 0 0 135.80782,326.15 0.744,0.744 0 0 0 136.19682,326.361 Z M 131.18982,320.156 A 0.844,0.844 0 0 0 131.61082,320.026 0.794,0.794 0 0 0 131.86982,318.926 C 131.33482,318.051 130.83282,317.126 130.36282,316.172 A 0.794,0.794 0 0 0 129.29382,315.799 0.81,0.81 0 0 0 128.92082,316.885 25.217,25.217 0 0 0 130.54082,319.769 0.827,0.827 0 0 0 131.17282,320.158 Z M 127.80382,312.898 A 0.822,0.822 0 0 0 128.07882,312.898 0.81,0.81 0 0 0 128.57882,311.861 Q 128.06082,310.403 127.65582,308.847 A 0.794,0.794 0 0 0 126.66782,308.28 0.81,0.81 0 0 0 126.10082,309.268 C 126.37682,310.337 126.70082,311.39 127.04082,312.395 A 0.81,0.81 0 0 0 127.78582,312.895 Z M 125.87582,305.121 H 126.02182 A 0.81,0.81 0 0 0 126.68582,304.197 C 126.50782,303.176 126.37782,302.123 126.26482,301.054 A 0.815,0.815 0 0 0 124.64482,301.232 C 124.75782,302.332 124.90382,303.403 125.08182,304.472 A 0.81,0.81 0 0 0 125.85982,305.12 Z M 125.13082,297.133 V 297.133 A 0.81,0.81 0 0 0 125.92482,296.307 V 293.131 A 0.81,0.81 0 0 0 125.13082,292.305 0.859,0.859 0 0 0 124.30482,293.099 V 296.356 A 0.81,0.81 0 0 0 125.11482,297.134 Z M 125.30882,289.113 A 0.81,0.81 0 0 0 126.11882,288.368 C 126.11882,287.315 126.29682,286.262 126.41082,285.128 A 0.807,0.807 0 0 0 124.81082,284.95 C 124.69782,286.036 124.58382,287.105 124.50282,288.19 A 0.81,0.81 0 0 0 125.24782,289.065 Z M 126.28082,281.142 A 0.794,0.794 0 0 0 127.07482,280.478 C 127.25282,279.441 127.44682,278.388 127.65782,277.351 A 0.82604116,0.82604116 0 0 0 126.03782,277.027 C 125.82782,278.096 125.63782,279.149 125.45482,280.267 A 0.826,0.826 0 0 0 126.11882,281.207 Z M 127.90082,273.3 A 0.81,0.81 0 0 0 128.67882,272.684 C 128.93782,271.663 129.21382,270.626 129.50482,269.606 A 0.826,0.826 0 0 0 128.93782,268.606 0.81,0.81 0 0 0 127.94882,269.173 C 127.64082,270.21 127.36582,271.247 127.10682,272.3 A 0.81,0.81 0 0 0 127.68982,273.272 Z M 130.13682,265.588 A 0.794,0.794 0 0 0 130.89782,265.037 C 131.23782,264.037 131.57782,263.028 131.93482,262.023 A 0.81,0.81 0 0 0 131.44882,260.986 0.794,0.794 0 0 0 130.41182,261.472 C 130.03882,262.493 129.69882,263.514 129.35882,264.518 A 0.794,0.794 0 0 0 129.87682,265.539 0.664,0.664 0 0 0 130.15282,265.588 Z"
       id="path150"
       style="fill:#b5ff76;fill-opacity:1;stroke-width:1.11502" />
    <path
       class="e"
       d="M 178.19082,326.854 A 0.859,0.859 0 0 0 178.57982,326.754 L 180.00582,325.944 A 0.794,0.794 0 0 0 180.29782,324.844 0.81,0.81 0 0 0 179.19782,324.536 L 177.80482,325.33 A 0.826,0.826 0 0 0 177.48082,326.43 0.794,0.794 0 0 0 178.19082,326.854 Z"
       id="path152"
       style="fill:#b5ff76;fill-opacity:1;stroke-width:1.11502" />
    <path
       class="e"
       d="M 134.81882,258.726 V 258.726 A 0.81,0.81 0 0 0 135.58082,257.867 L 135.32182,253.541 A 0.875,0.875 0 0 0 134.85182,252.861 0.794,0.794 0 0 0 134.02582,252.942 L 130.38082,255.65 A 0.81,0.81 0 0 0 130.21882,256.784 0.778,0.778 0 0 0 131.33682,256.946 L 133.78382,255.131 133.96182,257.966 A 0.81,0.81 0 0 0 134.82082,258.727 Z"
       id="path154"
       style="fill:#b5ff76;fill-opacity:1;stroke-width:1.11502" />
    <path
       class="d"
       d="M 428.35382,115.047 C 428.35382,109.733 435.88782,105.407 445.09082,105.326 454.29382,105.245 461.74682,109.603 461.72982,114.934 461.72982,119.795 455.41082,123.829 447.29382,124.477 V 127.329 C 448.83282,127.556 449.96682,128.366 449.96682,129.322 V 138.522 C 449.96682,139.689 448.34682,140.612 446.33782,140.628 H 443.59982 C 441.60682,140.628 439.98682,139.704 439.99982,138.554 V 129.354 C 439.99982,128.382 441.14982,127.572 442.68982,127.329 V 124.639 C 434.51082,123.925 428.33782,119.923 428.35382,115.047 Z"
       id="path156"
       style="stroke-width:1.11502" />
    <path
       class="c"
       d="M 226.52982,492.027 516.17182,324.517 C 527.38382,318.029 536.47182,300.64 536.47182,285.669 V 21.906 C 536.47182,6.934 527.38282,0.057 516.17182,6.545 L 226.52982,174.039 C 215.31782,180.527 206.22982,197.9 206.22982,212.871 V 476.65 C 206.16382,491.622 215.31882,498.499 226.52982,492.027 Z"
       id="path158"
       style="fill:#ffebd1;fill-opacity:1;stroke-width:1.11502" />
    <path
       class="h"
       d="M 218.53682,169.89 508.16282,2.446 C 512.60182,-0.117 516.70082,-0.603 520.05482,0.694 520.47582,0.856 528.41482,4.96 528.80382,5.187 V 5.187 C 525.35282,3.565 520.96182,3.808 516.18282,6.582 L 226.55782,174.042 C 215.34582,180.53 206.25782,197.902 206.25782,212.874 V 476.651 C 206.25782,485.994 209.80582,492.19 215.18482,493.942 A 3.337,3.337 0 0 1 213.40282,493.342 C 213.14382,493.196 204.73482,488.642 204.49182,488.476 200.63582,485.767 198.22182,480.22 198.22182,472.515 V 208.722 C 198.21982,193.75 207.32582,176.362 218.53682,169.89 Z"
       id="path160"
       style="fill:#ab7126;fill-opacity:1;stroke-width:1.11502" />
    <path
       class="j"
       d="M 525.06682,45.297 V 285.656 C 525.06682,297.401 519.49382,308.871 510.48482,314.614 L 223.98682,480.347 223.50082,480.623 A 3.872,3.872 0 0 1 217.70082,477.249 V 223.133 Z"
       id="path166"
       style="fill:#8a5b1f;fill-opacity:1;stroke-width:1.11502" />
    <path
       class="k"
       d="M 218.04082,478.447 218.51082,478.187 505.05782,312.456 C 514.08182,306.713 519.63982,295.243 519.63982,283.498 V 48.412 L 525.03982,45.297 V 285.656 C 525.03982,297.401 519.46582,308.871 510.45782,314.614 L 223.98682,480.347 223.50082,480.623 A 3.87,3.87 0 0 1 217.94382,478.53 Z"
       id="path168"
       style="fill:#ab7126;fill-opacity:1;stroke-width:1.11502" />
    <path
       class="d"
       d="M 233.90982,194.299 A 12.249,12.249 0 0 1 228.31982,203.923 C 225.24182,205.705 222.74682,204.279 222.74682,200.683 A 12.314,12.314 0 0 1 228.31982,191.043 C 231.46282,189.33 233.90982,190.755 233.90982,194.299 Z"
       id="path170"
       style="fill:#eb4680;fill-opacity:1;stroke-width:1.11502" />
    <path
       class="d"
       d="M 248.35782,185.917 A 12.346,12.346 0 0 1 242.76782,195.557 C 239.68982,197.339 237.17882,195.913 237.17882,192.317 A 12.345,12.345 0 0 1 242.76782,182.596 C 245.84682,180.879 248.35782,182.369 248.35782,185.917 Z"
       id="path172"
       style="fill:#eb4680;fill-opacity:1;stroke-width:1.11502" />
    <path
       class="d"
       d="M 262.74182,177.531 A 12.314,12.314 0 0 1 257.16782,187.171 C 254.07382,188.953 251.57782,187.527 251.57782,183.931 A 12.249,12.249 0 0 1 257.16782,174.307 C 260.24682,172.575 262.74182,173.999 262.74182,177.531 Z"
       id="path174"
       style="fill:#eb4680;fill-opacity:1;stroke-width:1.11502" />
    <path
       class="a"
       d="M 336.22782,169.537 357.28982,157.402 C 359.41182,156.187 361.12982,157.159 361.12982,159.602 A 8.474,8.474 0 0 1 357.28982,166.229 L 336.22682,178.364 C 334.10482,179.579 332.37082,178.607 332.37082,176.177 A 8.506,8.506 0 0 1 336.22782,169.537 Z M 301.62082,189.514 322.68282,177.379 C 324.80482,176.164 326.53882,177.136 326.53882,179.579 A 8.489,8.489 0 0 1 322.68282,186.206 L 301.62082,198.341 C 299.49782,199.556 297.78082,198.584 297.78082,196.141 A 8.473,8.473 0 0 1 301.62082,189.514 Z M 267.02982,209.492 288.09182,197.357 C 290.21382,196.142 291.93182,197.114 291.93182,199.557 A 8.474,8.474 0 0 1 288.09182,206.184 L 267.02982,218.319 C 264.90682,219.534 263.17382,218.562 263.17382,216.119 A 8.49,8.49 0 0 1 267.02982,209.492 Z M 232.42282,229.485 253.48482,217.35 C 255.60682,216.135 257.32482,217.107 257.32482,219.537 A 8.49,8.49 0 0 1 253.48482,226.18 L 232.42182,238.315 C 230.29982,239.53 228.58182,238.558 228.58182,236.115 A 8.473,8.473 0 0 1 232.42182,229.484 Z"
       id="path176"
       style="fill:#d1923f;fill-opacity:1;stroke-width:1.11502" />
    <path
       class="l"
       d="M 419.42382,186.915 V 277.37 L 409.52382,271.57 V 180.87 Z"
       id="path178"
       style="fill:#ab7126;fill-opacity:1;stroke-width:1.11502" />
    <path
       class="h"
       d="M 419.08282,186.659 V 277.114 L 616.40582,163.944 V 73.246 Z"
       id="path180"
       style="fill:#d1923f;fill-opacity:1;stroke-width:1.11502" />
    <path
       class="a"
       d="M 616.40582,73.245 419.08282,186.659 409.21582,180.616 606.61982,67.283 Z"
       id="path182"
       style="fill:#e8b572;fill-opacity:1;stroke-width:1.11502" />
    <path
       class="d"
       d="M 518.17482,204.56 V 200.72 L 580.45482,165.32 V 169.16 Z"
       id="path186"
       style="fill:#b5ff76;fill-opacity:1;stroke-width:1.11502" />
    <path
       class="d"
       d="M 607.40582,93.806 V 97.646 L 502.72482,157.546 V 153.686 Z"
       id="path188"
       style="fill:#b5ff76;fill-opacity:1;stroke-width:1.11502" />
    <path
       class="d"
       d="M 570.52282,147.036 607.38182,125.747 V 129.587 L 570.52282,150.876 Z"
       id="path190"
       style="fill:#b5ff76;fill-opacity:1;stroke-width:1.11502" />
    <path
       class="d"
       d="M 545.65082,177.454 V 181.294 L 530.43682,189.525 V 185.685 Z"
       id="path192"
       style="fill:#b5ff76;fill-opacity:1;stroke-width:1.11502" />
    <path
       class="d"
       d="M 547.94382,144.09 607.38882,109.774 V 113.614 L 547.94382,147.93 Z"
       id="path194"
       style="fill:#b5ff76;fill-opacity:1;stroke-width:1.11502" />
    <path
       class="d"
       d="M 585.60282,130.336 607.37782,117.763 V 121.603 L 585.60282,134.176 Z"
       id="path196"
       style="fill:#b5ff76;fill-opacity:1;stroke-width:1.11502" />
    <path
       class="d"
       d="M 591.17282,154.959 549.38782,179.084 V 175.244 L 591.17282,151.119 Z"
       id="path198"
       style="fill:#b5ff76;fill-opacity:1;stroke-width:1.11502" />
    <path
       class="d"
       d="M 581.87682,132.533 V 136.373 L 523.20982,169.7 V 165.86 Z"
       id="path200"
       style="fill:#b5ff76;fill-opacity:1;stroke-width:1.11502" />
    <path
       class="d"
       d="M 566.80282,149.234 V 153.09 L 537.46082,170.021 V 166.181 Z"
       id="path202"
       style="fill:#b5ff76;fill-opacity:1;stroke-width:1.11502" />
    <path
       class="d"
       d="M 594.91582,148.913 607.37482,141.719 V 145.559 L 594.91582,152.749 Z"
       id="path204"
       style="fill:#b5ff76;fill-opacity:1;stroke-width:1.11502" />
    <path
       class="d"
       d="M 544.25582,150.157 502.79482,173.557 V 169.717 L 544.25582,146.317 Z"
       id="path206"
       style="fill:#b5ff76;fill-opacity:1;stroke-width:1.11502" />
    <path
       class="d"
       d="M 519.50582,171.919 502.81782,181.543 V 177.703 L 519.50582,168.063 Z"
       id="path208"
       style="fill:#b5ff76;fill-opacity:1;stroke-width:1.11502" />
    <path
       class="d"
       d="M 607.40582,105.644 502.72482,165.526 V 161.686 L 607.40582,101.804 Z"
       id="path210"
       style="fill:#b5ff76;fill-opacity:1;stroke-width:1.11502" />
    <path
       class="d"
       d="M 533.73382,172.215 502.80482,189.535 V 185.695 L 533.73382,168.375 Z"
       id="path212"
       style="fill:#b5ff76;fill-opacity:1;stroke-width:1.11502" />
    <path
       class="d"
       d="M 584.19282,163.102 607.37782,149.719 V 153.559 L 584.19282,166.942 Z"
       id="path214"
       style="fill:#b5ff76;fill-opacity:1;stroke-width:1.11502" />
    <path
       class="d"
       d="M 514.47082,206.776 502.82182,213.5 V 209.66 L 514.47082,202.936 Z"
       id="path216"
       style="fill:#b5ff76;fill-opacity:1;stroke-width:1.11502" />
    <path
       class="d"
       d="M 526.67682,191.727 502.81182,205.515 V 201.675 L 526.67682,187.887 Z"
       id="path218"
       style="fill:#b5ff76;fill-opacity:1;stroke-width:1.11502" />
    <path
       class="d"
       d="M 607.40582,137.603 502.72482,197.485 V 193.645 L 607.40582,133.763 Z"
       id="path220"
       style="fill:#b5ff76;fill-opacity:1;stroke-width:1.11502" />
    <path
       class="l"
       d="M 444.09982,185.586 478.51282,165.674 C 484.52382,162.207 489.40082,165.885 489.40082,173.921 V 213.778 C 489.40082,221.878 484.53982,231.13 478.51282,234.597 L 444.09982,254.509 C 438.07282,257.976 433.19982,254.298 433.19982,246.278 V 206.405 C 433.19582,198.385 438.07182,189.053 444.09982,185.586 Z"
       id="path222"
       style="fill:#8a5b1f;fill-opacity:1;stroke-width:1.11502" />
    <path
       class="m"
       d="M 439.83782,251.235 474.25082,231.323 C 480.27782,227.856 485.15082,218.54 485.15082,210.504 V 170.68 A 12.962,12.962 0 0 0 483.80582,164.458 C 487.14382,165.009 489.39582,168.458 489.39582,173.92 V 213.777 C 489.39582,221.877 484.53482,231.129 478.50782,234.596 L 444.09982,254.508 C 439.98482,256.89 436.39982,255.901 434.54082,252.483 A 8.1,8.1 0 0 0 439.84082,251.235 Z"
       id="path224"
       style="fill:#ab7126;fill-opacity:1;stroke-width:1.11502" />
    <path
       class="n"
       d="M 470.83282,196.732 505.24582,176.832 C 511.25682,173.349 516.13382,177.043 516.13382,185.063 V 224.903 C 516.13382,232.923 511.27282,242.239 505.24582,245.722 L 470.83282,265.634 C 464.80582,269.117 459.93282,265.423 459.93282,257.403 V 217.552 C 459.92882,209.532 464.80482,200.216 470.83282,196.732 Z"
       id="path226"
       style="fill:#b5ff76;fill-opacity:1;stroke-width:1.11502" />
    <path
       class="o"
       d="M 465.71082,193.439 500.12382,173.539 A 7.145,7.145 0 0 1 506.92382,172.794 V 172.794 L 512.88582,176.294 V 176.294 A 6.9,6.9 0 0 0 505.70882,176.829 L 471.29582,196.729 C 465.26882,200.212 460.39582,209.529 460.39582,217.549 V 257.392 C 460.39582,261.292 461.56282,264.148 463.44182,265.692 L 460.20182,263.505 A 9.8,9.8 0 0 1 454.87182,254.105 V 214.265 C 454.82282,206.239 459.69982,196.923 465.71082,193.439 Z"
       id="path228"
       style="fill:#8ce83d;fill-opacity:1;stroke-width:1.11502" />
    <path
       class="d"
       d="M 507.01182,187.877 V 233.485 L 469.74782,255.034 V 209.393 Z M 472.08082,250.902 504.61482,232.108 V 191.977 L 472.08082,210.771 Z"
       id="path232"
       style="fill:#eb4680;fill-opacity:1;stroke-width:1.11502" />
    <path
       class="d"
       d="M 477.87982,217.501 C 477.87982,220.501 480.00182,221.701 482.59482,220.191 A 10.369,10.369 0 0 0 487.30982,212.091 C 487.30982,209.11 485.20382,207.891 482.59482,209.401 A 10.434,10.434 0 0 0 477.87982,217.501 Z"
       id="path234"
       style="fill:#eb4680;fill-opacity:1;stroke-width:1.11502" />
    <path
       class="d"
       d="M 505.76382,221.339 496.04282,208.779 486.17382,233.746 478.99682,227.913 471.07382,249.446 471.23582,251.617 505.61582,233.228 Z"
       id="path236"
       style="fill:#eb4680;fill-opacity:1;stroke-width:1.11502" />
    <path
       class="p"
       d="M 166.15382,156.028 C 166.15382,162.217 168.29282,166.608 171.75982,168.728 L 177.2283,171.63131 C 189.04435,167.85806 210.3108,125.74545 205.89155,122.96131 L 200.13982,119.961 C 196.52682,118.001 191.60082,118.341 186.15782,121.5 175.10882,127.885 166.15382,143.342 166.15382,156.028 Z"
       id="path238"
       sodipodi:nodetypes="scccccs"
       style="fill:#66df00;fill-opacity:1;stroke-width:1.11502" />
    <ellipse
       class="q"
       cx="-239.87852"
       cy="30.487114"
       rx="16.299"
       ry="28.224001"
       transform="matrix(-0.86330748,-0.50467831,-0.50467831,0.86330748,0,0)"
       id="ellipse242"
       style="fill:#95eb4c;fill-opacity:1;stroke-width:1.11502" />
    <path
       class="l"
       d="M 176.34137,355.04545 V 465.848 L 166.08782,460.064 V 349.00245 Z"
       id="path244"
       sodipodi:nodetypes="ccccc"
       style="fill:#ab7126;fill-opacity:1;stroke-width:1.11502" />
    <path
       class="h"
       d="M 175.95582,355.04645 V 465.848 L 391.91082,341.66345 V 230.93945 Z"
       id="path246"
       sodipodi:nodetypes="ccccc"
       style="fill:#d1923f;fill-opacity:1;stroke-width:1.11502" />
    <path
       class="a"
       d="M 391.91082,231.077 175.95582,355.184 166.08882,349.141 382.12482,225.131 Z"
       id="path248"
       style="fill:#e8b572;fill-opacity:1;stroke-width:1.11502" />
    <ellipse
       class="l"
       cx="-386.37296"
       cy="219.16388"
       rx="27.591999"
       ry="47.778999"
       transform="matrix(-0.86330748,-0.50467831,-0.50467831,0.86330748,0,0)"
       id="ellipse252"
       style="fill:#ab7126;fill-opacity:1;stroke-width:1.11502" />
    <path
       class="l"
       d="M 317.75982,291.81 325.05082,287.61 V 369.721 L 317.75982,373.934 Z M 307.25982,287.695 314.55082,283.495 V 375.688 L 307.25982,379.9 Z M 296.46982,306.246 303.74482,302.033 V 381.86 L 296.46982,386.072 Z M 346.69782,312.03 V 357.023 L 339.40682,361.223 V 316.242 Z M 328.59782,299.522 335.88882,295.322 V 363.192 L 328.59782,367.405 Z M 285.90582,329.042 293.18082,324.842 V 388.03 L 285.90582,392.242 Z M 275.50582,355.111 282.79782,350.898 V 394.109 L 275.50682,398.322 Z M 350.18082,304.221 357.45582,300.008 V 350.488 L 350.18082,354.688 Z M 379.06882,307.202 V 337.775 L 371.77782,341.988 V 311.414 Z M 360.96882,295.196 368.25982,290.996 V 343.944 L 360.96882,348.156 Z"
       id="path256"
       style="fill:#ab7126;fill-opacity:1;stroke-width:1.11502" />
    <path
       class="b"
       d="M 317.75982,324.056 325.05082,319.843 V 369.729 L 317.75982,373.942 Z M 307.25982,301.373 314.55082,297.16 V 375.691 L 307.25982,379.903 Z M 296.46982,320.815 303.74482,316.603 V 381.848 L 296.46982,386.06 Z M 346.69582,322.954 V 356.978 L 339.40482,361.178 V 327.151 Z M 328.59582,321.609 335.88682,317.409 V 363.196 L 328.59582,367.408 Z M 350.20982,308.357 357.48482,304.144 V 350.498 L 350.20982,354.698 Z M 379.09982,328.933 V 337.779 L 371.80882,341.991 V 333.129 Z M 360.99982,328.933 368.29082,324.72 V 343.935 L 360.99982,348.148 Z M 285.89982,340.777 293.14182,336.629 V 388.054 L 285.86682,392.267 Z M 275.49982,361.483 282.79082,357.283 V 394.081 L 275.49982,398.293 Z"
       id="path258"
       style="fill:#f0d1a8;fill-opacity:1;stroke-width:1.11502" />
    <path
       class="d"
       d="M 296.49482,321.679 303.78582,317.467 V 316.559 L 296.49482,320.759 Z"
       id="path260"
       style="stroke-width:1.11502" />
    <path
       class="d"
       d="M 307.28682,302.198 314.57782,297.988 V 297.081 L 307.28682,301.293 Z"
       id="path262"
       style="stroke-width:1.11502" />
    <path
       class="d"
       d="M 275.54182,362.409 282.81682,358.209 V 357.285 L 275.54182,361.498 Z"
       id="path264"
       style="stroke-width:1.11502" />
    <path
       class="d"
       d="M 317.77082,324.906 325.04582,320.696 V 319.789 L 317.77082,324.001 Z"
       id="path266"
       style="stroke-width:1.11502" />
    <path
       class="d"
       d="M 285.91282,341.679 293.20382,337.466 V 336.559 L 285.91282,340.771 Z"
       id="path268"
       style="stroke-width:1.11502" />
    <path
       class="d"
       d="M 360.92282,329.821 368.21382,325.609 V 324.702 L 360.92282,328.915 Z"
       id="path270"
       style="stroke-width:1.11502" />
    <path
       class="d"
       d="M 350.13082,309.205 357.42182,304.993 V 304.086 L 350.13082,308.286 Z"
       id="path272"
       style="stroke-width:1.11502" />
    <path
       class="d"
       d="M 371.71482,333.098 V 334.005 L 378.98982,329.805 V 328.898 Z"
       id="path274"
       style="stroke-width:1.11502" />
    <path
       class="d"
       d="M 328.54682,322.473 335.83782,318.273 V 317.35 L 328.54682,321.562 Z"
       id="path276"
       style="stroke-width:1.11502" />
    <path
       class="d"
       d="M 339.33882,328.021 346.62982,323.821 V 322.914 L 339.33882,327.114 Z"
       id="path278"
       style="stroke-width:1.11502" />
    <path
       class="p"
       d="M 256.11582,369.706 C 255.67782,353.506 243.86682,347.023 229.39882,355.367 221.94582,359.677 215.20582,367.081 210.34582,375.555 L 204.99882,374.21 C 211.09082,363.177 219.77482,353.439 229.39882,347.882 247.60982,337.367 262.45082,345.682 262.67782,366.382 L 258.40082,370.27 Z"
       id="path280"
       style="fill:#66df00;fill-opacity:1;stroke-width:1.11502" />
    <path
       class="p"
       d="M 215.97582,420.499 A 23.055,23.055 0 0 0 229.39082,416.935 C 243.09782,409.012 254.42282,390.574 255.96182,374.421 L 262.44282,371.181 C 262.44282,371.294 264.62982,371.748 264.61382,371.861 262.78282,391.854 246.46782,414.537 229.39082,424.42 223.18582,428.001 218.99082,429.88 214.01482,429.281 213.80382,429.281 211.98982,428.73 211.77882,428.714 Z"
       id="path282"
       style="fill:#66df00;fill-opacity:1;stroke-width:1.11502" />
    <path
       class="p"
       d="M 207.84382,380.61 A 51.116,51.116 0 0 0 202.65882,401.673 C 202.65882,411.394 206.61182,417.745 212.75282,419.835 L 208.62082,428.035 C 201.00582,425.41 196.12882,417.488 196.12882,405.45 A 63.56,63.56 0 0 1 202.60982,379.268 Z"
       id="path284"
       style="fill:#66df00;fill-opacity:1;stroke-width:1.11502" />
    <path
       class="p"
       d="M 220.20282,393.95 A 22.374,22.374 0 0 0 224.88482,388.328 C 225.66282,387.028 225.64582,385.622 224.88482,385.185 A 6.074,6.074 0 0 1 222.48482,382.512 C 221.65882,382.739 220.63782,382.431 220.63782,381.312 A 4.52,4.52 0 0 1 221.83782,378.266 14.906,14.906 0 0 1 229.39382,365.016 6.967,6.967 0 0 1 233.97882,363.736 22.553,22.553 0 0 1 236.70082,364.481 C 238.23982,365.242 236.81382,366.895 236.92782,369.568 237.60882,369.406 238.12782,370.068 238.12782,371.188 A 5.444,5.444 0 0 1 236.28082,374.526 27.545,27.545 0 0 1 233.88082,379.97 C 233.13582,381.282 233.10282,382.708 233.88082,383.113 A 6.205,6.205 0 0 0 238.56282,383.324 3.419,3.419 0 0 1 240.52382,383.243 22.613,22.613 0 0 1 242.85682,383.891 C 243.90982,384.41 242.71082,385.171 242.71082,386.969 V 392.04 A 3.387,3.387 0 0 1 241.09082,394.713 L 219.33182,409.149 C 218.95982,409.376 216.82082,408.614 216.56082,408.501 A 1.122,1.122 0 0 1 215.99382,407.464 V 402.377 A 12.087,12.087 0 0 1 220.20282,393.95 Z"
       id="path286"
       style="fill:#66df00;fill-opacity:1;stroke-width:1.11502" />
    <path
       class="r"
       d="M 258.41282,370.326 C 257.97582,354.126 246.16382,347.643 231.69582,356.003 224.24282,360.297 217.50282,367.717 212.64182,376.174 L 207.29482,374.829 C 213.38682,363.795 222.07082,354.074 231.69482,348.501 249.90582,337.986 264.74682,346.314 264.97382,367.02 Z"
       id="path296"
       style="fill:#95eb4c;fill-opacity:1;stroke-width:1.11502" />
    <path
       class="r"
       d="M 218.27382,421.131 A 23.088,23.088 0 0 0 231.68882,417.567 C 245.39582,409.644 256.72082,391.206 258.25982,375.053 L 264.74082,371.813 C 262.99082,392.001 248.81482,415.185 231.64082,425.101 225.15982,428.827 219.14882,430.188 214.02882,429.459 Z"
       id="path298"
       style="fill:#95eb4c;fill-opacity:1;stroke-width:1.11502" />
    <path
       class="r"
       d="M 210.14082,381.226 A 51.134,51.134 0 0 0 204.95582,402.289 C 204.95582,412.01 208.90882,418.361 215.04982,420.451 L 210.91882,428.551 C 203.30382,425.943 198.42682,418.004 198.42682,405.982 A 63.561,63.561 0 0 1 204.77782,379.897 Z"
       id="path300"
       style="fill:#95eb4c;fill-opacity:1;stroke-width:1.11502" />
    <path
       class="r"
       d="M 222.56982,394.582 A 23.029,23.029 0 0 0 227.25182,388.96 C 228.02982,387.66 228.01282,386.254 227.25182,385.817 A 6.074,6.074 0 0 1 224.85182,383.144 C 224.02582,383.371 223.00482,383.063 223.00482,381.944 A 4.488,4.488 0 0 1 224.20482,378.898 14.905,14.905 0 0 1 231.75482,365.645 C 237.40882,362.405 239.09482,365.499 239.28882,370.181 239.96882,370.035 240.48882,370.7 240.48882,371.801 A 5.444,5.444 0 0 1 238.64182,375.139 27.025,27.025 0 0 1 236.24182,380.567 C 235.48082,381.879 235.46382,383.321 236.24182,383.726 A 6.125,6.125 0 0 0 240.92382,383.92 C 243.30582,383.207 245.07182,384.649 245.07182,387.565 V 392.652 A 3.435,3.435 0 0 1 243.45182,395.325 L 219.91082,408.918 C 219.05182,409.418 218.29082,409.018 218.29082,408.043 V 403.085 A 12.054,12.054 0 0 1 222.56982,394.582 Z"
       id="path302"
       style="fill:#95eb4c;fill-opacity:1;stroke-width:1.11502" />
    <path
       class="o"
       d="M 390.31582,327.492 V 373.749 L 382.57082,369.488 V 322.972 Z"
       id="path304"
       style="fill:#e31960;fill-opacity:1;stroke-width:1.11502" />
    <path
       class="n"
       d="M 390.09482,326.951 V 373.706 L 561.25482,274.892 V 227.876 Z"
       id="path306"
       style="fill:#eb4680;fill-opacity:1;stroke-width:1.11502"
       sodipodi:nodetypes="ccccc" />
    <path
       class="s"
       d="M 561.25882,228.33 390.09882,327.405 382.38682,322.885 553.61182,223.907 Z"
       id="path308"
       style="fill:#ed5b8f;fill-opacity:1;stroke-width:1.11502" />
    <path
       class="d"
       d="M 398.80782,359.686 552.82282,269.798 V 242.546 L 398.80782,332.434 Z"
       id="path312"
       style="fill:#b5ff76;fill-opacity:1;stroke-width:1.11502" />
    <path
       class="m"
       d="M 455.32282,303.197 452.21182,304.997 450.76982,319.87 V 319.87 L 449.23282,306.713 445.71682,308.738 444.17782,323.676 V 323.676 L 442.73582,310.455 439.94882,312.075 442.02282,330.383 446.05682,328.05 447.53082,315.38 V 315.38 L 449.00482,326.349 453.29782,323.87 Z"
       id="path314"
       style="fill:#e31960;fill-opacity:1;stroke-width:1.11502" />
    <path
       class="m"
       d="M 436.91082,313.936 433.79982,315.736 432.35782,330.609 V 330.609 L 430.81882,317.437 427.30282,319.478 425.76382,334.4 V 334.4 L 424.32182,321.2 421.53482,322.82 423.60882,341.128 427.64282,338.811 429.11682,326.141 V 326.141 L 430.59082,337.11 434.88482,334.631 Z"
       id="path316"
       style="fill:#e31960;fill-opacity:1;stroke-width:1.11502" />
    <path
       class="m"
       d="M 418.35282,324.513 415.24182,326.313 413.79982,341.186 V 341.186 L 412.26082,328.03 408.74482,330.055 407.20582,344.993 V 344.993 L 405.76382,331.772 402.97682,333.392 405.00182,351.749 409.03582,349.432 410.49382,336.762 V 336.762 L 411.96782,347.731 416.34282,345.22 Z"
       id="path318"
       style="fill:#e31960;fill-opacity:1;stroke-width:1.11502" />
    <path
       class="p"
       d="M 483.60682,89.024 V 121.407 L 478.74582,118.717 V 86.091 Z"
       id="path320"
       sodipodi:nodetypes="ccccc"
       style="fill:#e31960;fill-opacity:1;stroke-width:1.11502" />
    <path
       class="q"
       d="M 483.54382,88.918 V 121.299 L 512.25382,104.585 V 72.084 Z"
       id="path322"
       sodipodi:nodetypes="ccccc"
       style="fill:#eb4680;fill-opacity:1;stroke-width:1.11502" />
    <path
       class="r"
       d="M 512.25582,72.207 483.54582,89.041 478.71782,86.108 507.49282,69.357 Z"
       id="path324"
       style="fill:#ed5b8f;fill-opacity:1;stroke-width:1.11502" />
    <path
       class="f"
       d="M 458.39982,78.284 V 130.519 L 450.52582,126.177 V 73.537 Z"
       id="path328"
       style="fill:#8ce83d;fill-opacity:1;stroke-width:1.11502" />
    <path
       class="t"
       d="M 504.78882,51.016 458.28882,78.284 450.47982,73.537 497.07682,46.415 Z"
       id="path330"
       style="fill:#c2ff8e;fill-opacity:1;stroke-width:1.11502" />
    <path
       class="e"
       d="M 504.78582,51.017 V 72.679 L 480.17482,87.115 V 117.866 L 458.28582,130.52 V 78.287 Z"
       id="path334"
       style="fill:#b5ff76;fill-opacity:1;stroke-width:1.11502" />
    <path
       class="o"
       d="M 359.15182,204.5875 V 240.715 L 353.70782,237.715 V 201.3145 Z"
       id="path336"
       sodipodi:nodetypes="ccccc"
       style="fill:#e31960;fill-opacity:1;stroke-width:1.11502" />
    <path
       class="n"
       d="M 359.09382,204.5765 V 240.704 L 391.19382,222.153 V 185.7495 Z"
       id="path338"
       sodipodi:nodetypes="ccccc"
       style="fill:#eb4680;fill-opacity:1;stroke-width:1.11502" />
    <path
       class="s"
       d="M 391.19282,185.796 359.09282,204.623 353.68182,201.35 385.86282,182.616 Z"
       id="path340"
       style="fill:#ed5b8f;fill-opacity:1;stroke-width:1.11502" />
    <path
       class="o"
       d="M 317.08382,228.9205 V 265.049 L 311.63982,262.049 V 225.6475 Z"
       id="path344"
       sodipodi:nodetypes="ccccc"
       style="fill:#e31960;fill-opacity:1;stroke-width:1.11502" />
    <path
       class="n"
       d="M 317.02882,228.9105 V 265.039 L 349.12882,246.488 V 210.0835 Z"
       id="path346"
       sodipodi:nodetypes="ccccc"
       style="fill:#eb4680;fill-opacity:1;stroke-width:1.11502" />
    <path
       class="s"
       d="M 349.12882,210.128 317.02882,228.955 311.61782,225.682 343.79882,206.948 Z"
       id="path348"
       style="fill:#ed5b8f;fill-opacity:1;stroke-width:1.11502" />
    <path
       class="o"
       d="M 275.29182,252.9775 V 289.106 L 269.84782,286.106 V 249.7045 Z"
       id="path352"
       sodipodi:nodetypes="ccccc"
       style="fill:#e31960;fill-opacity:1;stroke-width:1.11502" />
    <path
       class="n"
       d="M 275.22282,252.9695 V 289.095 L 307.32282,270.544 V 234.1425 Z"
       id="path354"
       sodipodi:nodetypes="ccccc"
       style="fill:#eb4680;fill-opacity:1;stroke-width:1.11502" />
    <path
       class="s"
       d="M 307.32382,234.18 275.22382,253.007 269.82382,249.734 302.00982,231.021 Z"
       id="path356"
       style="fill:#ed5b8f;fill-opacity:1;stroke-width:1.11502" />
    <path
       class="o"
       d="M 234.03282,276.4995 V 312.627 L 228.58882,309.627 V 273.2265 Z"
       id="path360"
       sodipodi:nodetypes="ccccc"
       style="fill:#e31960;fill-opacity:1;stroke-width:1.11502" />
    <path
       class="n"
       d="M 233.96682,276.4925 V 312.618 L 266.06682,294.067 V 257.6655 Z"
       id="path362"
       sodipodi:nodetypes="ccccc"
       style="fill:#eb4680;fill-opacity:1;stroke-width:1.11502" />
    <path
       class="s"
       d="M 266.06882,257.7 233.96882,276.527 228.56882,273.254 260.75482,254.541 Z"
       id="path364"
       style="fill:#ed5b8f;fill-opacity:1;stroke-width:1.11502" />
    <path
       class="d"
       d="M 284.86082,268.311 A 13.833,13.833 0 0 0 287.84182,264.763 C 288.32782,263.937 288.31182,263.046 287.84182,262.77 A 3.839,3.839 0 0 1 286.33482,261.15 C 285.81682,261.28 285.16782,261.15 285.16782,260.388 A 2.884,2.884 0 0 1 285.91382,258.46 9.477,9.477 0 0 1 290.77382,250.067 C 294.35482,248.009 295.42382,249.967 295.55382,252.951 295.97482,252.851 296.29882,253.275 296.29882,254.004 A 3.483,3.483 0 0 1 295.13182,256.11 17,17 0 0 1 293.62482,259.545 C 293.13882,260.371 293.12482,261.295 293.62482,261.538 A 3.921,3.921 0 0 0 296.58982,261.668 C 298.09682,261.214 299.21482,262.122 299.21482,263.968 V 267.208 A 2.139,2.139 0 0 1 298.22682,268.828 L 283.32082,277.428 A 0.6,0.6 0 0 1 282.34882,276.877 V 273.637 A 7.7,7.7 0 0 1 284.86082,268.311 Z"
       id="path368"
       style="fill:#b5ff76;fill-opacity:1;stroke-width:1.11502" />
    <path
       class="d"
       d="M 260.26082,291.544 255.06082,294.544 V 285.228 L 260.26082,282.214 Z M 252.02982,296.307 246.84482,299.272 V 282.196 L 252.04482,279.196 Z M 243.78082,276.185 V 301.055 L 238.58082,304.133 V 279.182 Z"
       id="path370"
       style="fill:#b5ff76;fill-opacity:1;stroke-width:1.11502" />
    <path
       class="d"
       d="M 324.69182,242.859 A 7.6,7.6 0 0 1 324.79182,241.385 L 322.34482,241.077 A 23.185,23.185 0 0 1 323.44482,237.351 L 326.24482,236.509 A 19.973,19.973 0 0 1 327.99482,233.495 L 327.31482,230.676 A 22.3,22.3 0 0 1 330.00382,227.922 L 331.51082,229.866 A 11.679,11.679 0 0 1 332.74182,229.04 9.513,9.513 0 0 1 333.97282,228.44 L 335.47982,224.746 A 7.5,7.5 0 0 1 338.16882,224.487 L 337.48882,228.087 A 3.776,3.776 0 0 1 339.23882,229.075 L 342.03882,226.693 A 7.47,7.47 0 0 1 343.15682,229.123 L 340.69382,232.363 A 8.764,8.764 0 0 1 340.79382,233.708 11.479,11.479 0 0 1 340.69382,235.182 L 343.15682,235.49 A 22.772,22.772 0 0 1 342.03882,239.216 L 339.23882,240.058 A 18.7,18.7 0 0 1 337.48882,243.072 L 338.16882,245.891 A 22.392,22.392 0 0 1 335.47982,248.726 L 333.97282,246.766 A 11.868,11.868 0 0 1 332.74182,247.608 9.337,9.337 0 0 1 331.51082,248.191 L 330.00382,251.885 A 7.89,7.89 0 0 1 327.31382,252.16 L 327.99482,248.547 A 3.856,3.856 0 0 1 326.24482,247.559 L 323.44482,249.941 A 7.31,7.31 0 0 1 322.34482,247.511 L 324.79182,244.368 A 11.926,11.926 0 0 1 324.69182,242.859 Z M 332.79182,241.919 A 7.129,7.129 0 0 0 336.03182,236.346 C 336.03182,234.288 334.57382,233.462 332.79182,234.499 A 7.161,7.161 0 0 0 329.55082,240.072 C 329.50182,242.13 330.97682,242.956 332.74282,241.919 Z"
       id="path372"
       style="fill:#b5ff76;fill-opacity:1;stroke-width:1.11502" />
    <path
       class="d"
       d="M 385.22782,200.165 374.89082,216.365 364.56982,212.153 V 212.153 A 3.939,3.939 0 0 1 365.80082,210.953 L 384.01382,200.339 A 1.507,1.507 0 0 1 385.24482,200.112 Z"
       id="path374"
       style="fill:#b5ff76;fill-opacity:1;stroke-width:1.11502" />
    <path
       class="d"
       d="M 364.53482,212.144 374.88782,218.058 377.90182,212.987 385.28982,216.017 V 216.017 L 378.41982,212.096 385.28982,200.22 A 1.312,1.312 0 0 1 386.06782,201.597 V 213.943 A 4.488,4.488 0 0 1 384.04282,217.443 L 365.78282,227.893 C 364.66482,228.541 363.75782,228.023 363.75782,226.743 V 214.399 A 4.245,4.245 0 0 1 364.53582,212.147 Z M 364.53482,227.944 371.92282,216.376 371.37182,216.068 364.50182,227.928 Z"
       id="path376"
       style="fill:#b5ff76;fill-opacity:1;stroke-width:1.11502" />
    <path
       class="l"
       d="M 520.59482,310.231 V 356.471 L 513.28782,352.323 V 305.808 Z"
       id="path378"
       style="fill:#ab7126;fill-opacity:1;stroke-width:1.11502" />
    <path
       class="h"
       d="M 520.37682,310.2 V 356.44 L 644.59682,284.747 V 238.247 Z"
       id="path380"
       style="fill:#d1923f;fill-opacity:1;stroke-width:1.11502" />
    <path
       class="a"
       d="M 644.59682,238.205 520.37682,310.158 513.11882,305.735 637.38682,233.879 Z"
       id="path382"
       style="fill:#e8b572;fill-opacity:1;stroke-width:1.11502" />
    <path
       class="d"
       d="M 532.59082,313.565 555.27382,300.458 C 556.66682,299.648 557.78482,300.296 557.78482,301.9 V 317.276 A 5.557,5.557 0 0 1 555.27382,321.634 L 541.08082,329.734 533.98082,341.983 V 333.883 L 532.55482,334.709 C 531.16182,335.503 530.02682,334.871 530.02682,333.267 V 317.891 A 5.574,5.574 0 0 1 532.58682,313.565 Z M 548.59882,316.449 C 549.34382,316.87 550.54282,316.174 551.27182,314.829 552.00082,313.484 552.01682,312.188 551.27182,311.767 550.52682,311.346 549.34382,312.042 548.59882,313.387 547.85382,314.732 547.86982,316.028 548.59882,316.449 Z M 542.45782,319.997 C 543.18682,320.418 544.38582,319.722 545.13082,318.377 545.87582,317.032 545.85982,315.72 545.13082,315.299 544.40182,314.878 543.18682,315.574 542.45782,316.919 541.72882,318.264 541.71182,319.576 542.45782,319.997 Z M 536.30082,323.545 C 537.04582,323.966 538.24482,323.27 538.97382,321.925 539.70282,320.58 539.71882,319.268 538.97382,318.847 538.22882,318.426 537.04582,319.122 536.30082,320.467 535.55582,321.812 535.50682,323.059 536.30082,323.545 Z M 559.71282,316.189 V 303.698 L 568.38082,298.756 C 569.77382,297.946 570.90782,298.594 570.90782,300.198 V 315.574 A 5.574,5.574 0 0 1 568.38082,319.932 L 566.97082,320.742 V 328.842 L 559.87082,324.792 545.67782,332.992 C 544.28482,333.786 543.14982,333.154 543.14982,331.55 V 330.823 L 555.30082,323.823 A 9.721,9.721 0 0 0 559.71282,316.19 Z"
       id="path386"
       style="fill:#b5ff76;fill-opacity:1;stroke-width:1.11502" />
    <path
       class="d"
       d="M 638.91082,255.318 V 259.158 L 579.56282,293.425 V 289.585 Z"
       id="path388"
       style="fill:#b5ff76;fill-opacity:1;stroke-width:1.11502" />
    <path
       class="d"
       d="M 579.32482,305.749 619.91082,282.289 V 286.129 L 579.32482,309.589 Z"
       id="path390"
       style="fill:#b5ff76;fill-opacity:1;stroke-width:1.11502" />
    <path
       class="d"
       d="M 638.91082,267.156 579.56282,301.426 V 297.586 L 638.91082,263.316 Z"
       id="path392"
       style="fill:#b5ff76;fill-opacity:1;stroke-width:1.11502" />
    <path
       class="u"
       d="M 357.81082,466.999 396.38782,445.272 C 393.14782,442.825 391.10582,439.925 391.10582,436.798 391.10582,428.162 405.83382,421.163 423.99582,421.163 442.15782,421.163 456.88582,428.163 456.88582,436.798 456.88582,445.433 442.15782,452.417 423.99582,452.417 A 67.212,67.212 0 0 1 413.20482,451.542 L 371.66282,474.873 A 11.682,11.682 0 0 1 361.19682,474.436 C 357.77882,472.816 353.69582,469.413 357.81082,466.999 Z"
       id="path394"
       style="stroke-width:1.11502" />
    <path
       class="k"
       d="M 358.02782,462.838 A 8.83,8.83 0 1 0 370.00082,459.238 8.83,8.83 0 0 0 358.02782,462.838 Z"
       id="path396"
       style="fill:#8a5b1f;fill-opacity:1;stroke-width:1.11502" />
    <path
       class="m"
       d="M 385.94582,407.207 405.06382,417.507 376.54582,470.103 V 470.103 470.184 C 374.92582,473.262 369.27082,473.424 363.98882,470.605 358.70682,467.786 355.77482,462.958 357.50782,459.879 V 459.879 Z"
       id="path398"
       style="fill:#d1923f;fill-opacity:1;stroke-width:1.11502" />
    <path
       class="l"
       d="M 385.91782,407.188 C 384.29782,410.266 387.19782,415.062 392.39882,417.914 397.59982,420.766 403.29882,420.571 404.95482,417.493 406.61082,414.415 403.67482,409.619 398.39282,406.784 393.11082,403.949 387.57182,404.126 385.91782,407.188 Z"
       id="path400"
       style="fill:#ab7126;fill-opacity:1;stroke-width:1.11502" />
    <path
       class="k"
       d="M 398.43782,393.199 409.77882,399.323 401.67882,414.323 V 414.323 C 400.69082,416.154 397.33682,416.251 394.20982,414.566 391.08282,412.881 389.34882,410.013 390.30982,408.199 V 408.199 Z"
       id="path402"
       style="fill:#8a5b1f;fill-opacity:1;stroke-width:1.11502" />
    <path
       class="a"
       d="M 430.45382,272.518 C 444.61382,264.418 457.44582,263.413 466.84282,268.5 467.10182,268.646 480.58182,276.163 481.00382,276.812 471.46082,269.602 457.30382,269.712 441.51982,278.837 412.72882,295.46 389.39782,335.706 389.39782,368.737 389.39782,385.587 395.47382,397.301 405.24282,402.537 A 12.07,12.07 0 0 1 402.69882,401.419 L 392.97782,395.519 C 383.92082,389.978 378.39582,378.556 378.39582,362.419 378.33182,329.403 401.67882,289.141 430.45382,272.518 Z"
       id="path404"
       style="fill:#e19d45;fill-opacity:1;stroke-width:1.11502" />
    <path
       class="c"
       d="M 441.38182,278.842 C 470.15682,262.219 493.48682,275.521 493.48682,308.556 493.48682,341.591 470.15582,381.837 441.38182,398.456 412.60782,415.075 389.25982,401.696 389.25982,368.742 389.25982,335.788 412.57482,295.466 441.38182,278.842 Z M 442.15982,390.635 C 466.57582,376.523 486.39082,342.369 486.39082,314.34 486.39082,286.311 466.57582,275.018 442.15982,289.13 417.74382,303.242 397.99282,337.315 397.99282,365.344 397.99282,393.373 417.72682,404.634 442.15982,390.57 Z"
       id="path406"
       style="fill:#ffebd1;fill-opacity:1;stroke-width:1.11502" />
    <path
       class="a"
       d="M 433.00482,385.452 C 457.42082,371.352 477.23582,337.203 477.23582,309.173 477.23582,297.734 473.99582,289.083 468.37282,283.817 479.29282,286.75 486.38982,297.508 486.38982,314.277 486.38982,342.306 466.57482,376.46 442.15882,390.572 427.69082,398.916 414.85882,398.365 406.78982,390.702 414.11282,392.678 423.18582,391.122 433.00482,385.452 Z"
       id="path408"
       style="fill:#e19d45;fill-opacity:1;stroke-width:1.11502" />
  </g>
</svg>
